<?xml version="1.0" encoding="utf-8"?>
<svg version="1.1" id="Layer_1" xmlns="http://www.w3.org/2000/svg" xmlns:xlink="http://www.w3.org/1999/xlink" x="0px" y="0px"
	 viewBox="0 0 1247.31 1674.74" enable-background="new 0 0 1247.31 1674.74" xml:space="preserve">
<g>
	<path fill="#E5C58D" stroke="#E5C58D" stroke-width="0.5" d="M735.58,200.462c10.338-5.366,22.5-6.936,33.925-4.866
		c7.804,1.605,15.73,5.384,20.159,12.285c4.305,6.611,4.305,14.941,3.569,22.508c-2.131,16.818-11.978,31.654-23.946,43.219
		c-9.996,9.557-21.596,17.493-34.17,23.236c-7.357-14.933-13.451-30.619-16.607-47.007c-1.85-10.171-2.595-20.886,0.491-30.891
		C721.55,210.747,728.1,204.355,735.58,200.462z"/>
	<path fill="#E5C58D" stroke="#E5C58D" stroke-width="0.5" d="M167.661,197.402c12.083,0.202,24.806,3.56,33.732,12.092
		c6.313,5.927,8.242,15.02,7.997,23.376c-0.438,12.591-4.375,24.779-9.242,36.301c-2.674,6.041-5.305,12.171-8.909,17.721
		c-14.661-6.506-28.716-14.924-39.861-26.594c-8.575-8.926-15.608-20.036-17.098-32.539c-0.737-7.041-0.184-15.011,4.928-20.413
		C146.398,199.611,157.516,197.445,167.661,197.402z"/>
	<path fill="#AF814C" stroke="#AF814C" stroke-width="0.5" d="M527.682,263.515c5.761-6.155,13.284-11.294,21.921-11.907
		c9.049-0.763,17.546,4.042,23.797,10.224c9.084,9.303,15.108,21.158,19.211,33.39c4.226,12.144,6.647,24.832,8.085,37.59
		c0.184,2.473,1.324,5.121,0.061,7.479c-2.779-12.004-7.383-23.885-15.31-33.46c-5.086-6.094-11.986-11.215-20.053-12.197
		c-7.488-1-14.985,2.122-20.562,6.997c-8.155,7.05-13.398,16.835-17.028,26.849c-5.901,16.52-7.348,34.372-5.884,51.777
		c1.35,13.898,4.84,27.778,11.688,40.036c18.01-7.681,38.625-9.207,57.503-3.919c-1.482,4.893-3.718,9.593-6.269,14.021
		c-12.109-5.287-25.542-7.918-38.721-6.164c-9.47,1.008-18.475,4.393-26.989,8.532c-14.021-25.209-18.519-54.68-17.975-83.212
		c0.193-17.291,2.762-34.609,7.918-51.128C513.161,285.839,518.808,273.485,527.682,263.515z"/>
	<path fill="#AF814C" stroke="#AF814C" stroke-width="0.5" d="M346.211,256.395c9.102-2.683,19.106-1,27.243,3.735
		c9.812,5.664,17.318,14.608,22.991,24.288c8.988,15.599,13.951,33.232,16.239,51.006c2.552,21.64,1.552,43.842-4.086,64.939
		c-3.42,12.626-8.286,25.113-15.958,35.784c-15.52-6.997-32.811-10.461-49.813-8.628c-8.751,0.737-17.326,2.955-25.586,5.901
		c-1.236,0.737-1.719-1.026-2.245-1.727c-8.795-14.845-13.907-31.628-16.441-48.629c-2.289-15.424-2.394-31.154-0.649-46.639
		c2.446-19.852,8.119-39.677,19.15-56.53C324.115,269.434,333.734,259.841,346.211,256.395 M347.228,298.44
		c-9.566,2.253-16.897,9.724-21.991,17.782c-9.294,14.897-13.012,32.583-13.88,49.936c-0.561,18.51,2.157,37.529,10.469,54.241
		c19.431-6.129,40.948-4.709,59.651,3.236c5.699-10.189,9.049-21.535,10.829-33.022c2.692-18.308,1.675-37.274-3.77-54.995
		c-3.656-11.504-9.242-22.894-18.554-30.865C363.836,299.448,355.287,296.432,347.228,298.44z"/>
	<path fill="#5A4A42" stroke="#5A4A42" stroke-width="0.5" d="M966.188,258.219c4.34-2.815,9.707-3.841,14.801-2.911
		c10.522,1.736,20.93,4.472,30.751,8.689c-3.849,6.892-7.523,13.872-11.101,20.895c-2.376,5.094-5.533,9.987-6.462,15.616
		c3.253-1.99,5.445-5.182,7.848-8.067c6.366-8.014,12.267-16.379,18.545-24.464c14.012,7.181,26.647,17.712,34.477,31.531
		c-2.323,4.253-4.551,8.567-6.743,12.89c-2.376,5.007-5.375,9.847-6.41,15.371c1.526-1.017,3.016-2.166,4.218-3.586
		c4.568-5.252,8.61-10.925,12.889-16.414c5.147,13.547,5.936,28.427,3.648,42.649c-2.332,15.555-8.225,30.242-13.828,44.841
		c-6.304,15.757-13.196,31.487-23.052,45.394c-7.015,9.891-16.221,18.738-27.787,22.964c-8.707,3.218-18.203,3.77-27.366,2.753
		c-13.942-1.499-27.375-5.857-40.475-10.697c-8.198-2.929-14.669-9.163-20.001-15.844c-13.608-17.809-21.667-39.168-27.524-60.616
		c-5.112-19.65-8.313-40.019-7.067-60.361c0.666-8.26,2.061-16.695,6.068-24.052c2.622-4.858,6.98-9.102,12.512-10.285
		c7.269-1.596,15.38-1.052,21.737,3.122c6.199,4.033,10.031,10.803,12.328,17.677c3.297,10.013,4.112,20.711,3.621,31.189
		l-0.851,1.28c0.403-0.096,0.807-0.184,1.245-0.281c0.5-5.568,1.903-10.996,3.06-16.458c3.542-15.16,7.988-30.277,15.275-44.114
		C954.421,269.758,959.208,262.7,966.188,258.219z"/>
	<path fill="#FFFFFF" stroke="#FFFFFF" stroke-width="0.5" d="M544.832,301.631c5.577-4.875,13.074-7.997,20.562-6.997
		c8.067,0.982,14.968,6.103,20.053,12.197c7.927,9.575,12.53,21.456,15.31,33.46c5.498,25.437,3.884,53.049-7.436,76.723
		c-0.745-0.228-1.482-0.438-2.21-0.64c-18.878-5.287-39.493-3.762-57.503,3.919c-6.848-12.258-10.338-26.139-11.688-40.036
		c-1.464-17.405-0.018-35.258,5.884-51.777C531.434,318.466,536.678,308.681,544.832,301.631 M555.381,321.15
		c-6.655,1.175-12.565,5.156-16.835,10.303c-7.365,8.882-10.557,20.711-10.198,32.127c0.281,12.635,4.901,25.542,14.152,34.381
		c6.243,6.006,15.24,9.593,23.92,7.918c8.435-1.412,15.529-7.269,19.992-14.371c6.988-11.074,8.707-24.937,6.199-37.651
		c-2.069-10.215-7.102-20.132-15.327-26.735C571.234,322.254,563.106,319.571,555.381,321.15z"/>
	<path fill="#FFFFFF" stroke="#FFFFFF" stroke-width="0.5" d="M347.228,298.44c8.058-2.008,16.607,1.008,22.754,6.313
		c9.312,7.97,14.897,19.361,18.554,30.865c5.445,17.721,6.462,36.687,3.77,54.995c-1.78,11.487-5.129,22.833-10.829,33.022
		c-18.703-7.944-40.221-9.365-59.651-3.236c-8.312-16.713-11.031-35.731-10.469-54.241c0.868-17.353,4.586-35.038,13.88-49.936
		C330.332,308.164,337.662,300.693,347.228,298.44 M348.482,323.85c-8.269,2.175-15.064,8.155-19.65,15.222
		c-7.304,11.25-9.584,25.306-7.541,38.458c1.754,10.487,6.673,20.86,15.239,27.445c6.383,4.972,15.055,7.032,22.929,4.901
		c9.189-2.324,16.52-9.33,21.149-17.379c7.506-13.196,8.996-29.593,4.358-44.017c-2.885-8.839-8.418-17.177-16.59-21.903
		C362.441,323.087,355.137,322.14,348.482,323.85z"/>
	<path fill="#1E0E05" stroke="#1E0E05" stroke-width="0.5" d="M555.381,321.15c7.725-1.578,15.853,1.105,21.903,5.971
		c8.225,6.603,13.258,16.52,15.327,26.735c2.508,12.714,0.789,26.577-6.199,37.651c-4.463,7.102-11.557,12.96-19.992,14.371
		c-8.681,1.675-17.677-1.911-23.92-7.918c-9.251-8.839-13.872-21.746-14.152-34.381c-0.36-11.416,2.832-23.245,10.198-32.127
		C542.816,326.305,548.726,322.325,555.381,321.15 M541.746,339.923c-6.883,1.315-9.856,10.478-4.963,15.538
		c-1.412,7.26-0.351,14.845,1.964,21.816c0.789,2.026,1.342,4.367,3.253,5.673c0.728,1.903,1.85,3.656,3.192,5.191
		c2.797,5.463,8.839,8.996,14.784,10.057c4.682,0.605,10.355-0.237,13.495-4.104c5.936-3.516,10.022-9.777,11.478-16.467
		c4.226-14.003,1.771-30.312-7.672-41.694c-4.191-4.937-10.347-8.707-16.993-8.514C552.329,327.489,545.209,332.996,541.746,339.923
		z"/>
	<path fill="#1E0E05" stroke="#1E0E05" stroke-width="0.5" d="M348.482,323.85c6.655-1.71,13.959-0.763,19.895,2.727
		c8.172,4.726,13.705,13.065,16.59,21.903c4.638,14.424,3.148,30.821-4.358,44.017c-4.63,8.049-11.96,15.055-21.149,17.379
		c-7.874,2.131-16.546,0.07-22.929-4.901c-8.567-6.585-13.486-16.958-15.239-27.445c-2.043-13.153,0.237-27.208,7.541-38.458
		C333.418,332.005,340.214,326.025,348.482,323.85 M333.646,343.921c-6.445,11.136-7.813,24.928-4.191,37.231
		c1.403,6.541,5.217,12.583,10.75,16.388c1.175,1.894,3.253,2.841,5.226,3.709c8.812,3.858,19.957-0.64,24.587-8.768
		c1.377-1.526,2.525-3.271,3.288-5.182c0.815-0.684,1.666-1.403,2.052-2.438c3.086-6.962,4.507-14.652,4.2-22.254
		c0.009-1.333-0.412-2.587-0.833-3.814c2.692-2.894,3.569-7.436,1.692-10.987c-1.298-2.709-3.981-4.428-6.813-5.165
		c-3.709-8.549-13.67-14.415-22.973-12.372C343.195,331.786,337.329,337.529,333.646,343.921z"/>
	<path fill="#542814" stroke="#542814" stroke-width="0.5" d="M541.746,339.923c3.464-6.927,10.583-12.434,18.536-12.504
		c6.647-0.193,12.802,3.577,16.993,8.514c9.444,11.381,11.899,27.691,7.672,41.694c1.087-7.611-1.622-15.546-7.216-20.825
		c-0.219,1.999-0.351,4.007-0.649,5.989c0.36-4.717-0.088-9.873-3.244-13.652c-4.893-6.813-15.047-8.812-22.202-4.454
		C549.602,341.291,545.683,339.344,541.746,339.923z"/>
	<path fill="#542814" stroke="#542814" stroke-width="0.5" d="M333.646,343.921c3.683-6.392,9.549-12.135,16.984-13.652
		c9.303-2.043,19.264,3.823,22.973,12.372c-3.841-0.456-7.567,1.385-9.75,4.516c-3.691-1.21-7.558-2.508-11.495-1.815
		c-7.374,0.947-13.398,7.041-14.889,14.24c-6.12,5.27-9.04,13.608-8.014,21.57C325.834,368.85,327.201,355.057,333.646,343.921z"/>
	<path fill="#FFFFFF" stroke="#FFFFFF" stroke-width="0.5" d="M536.783,355.46c-4.893-5.059-1.92-14.222,4.963-15.538
		c3.937-0.579,7.856,1.368,9.891,4.761c1.482,3.244,1.35,7.348-1.026,10.136c-1.859,2.411-4.91,3.446-7.857,3.569
		C540.553,357.907,538.484,356.933,536.783,355.46z"/>
	<path fill="#FFFFFF" stroke="#FFFFFF" stroke-width="0.5" d="M363.853,347.157c2.183-3.13,5.91-4.972,9.75-4.516
		c2.832,0.737,5.515,2.455,6.813,5.165c1.876,3.551,1,8.093-1.692,10.987c-1.701,1.403-3.744,2.315-5.892,2.762
		c-3.832,0.044-7.707-1.929-9.321-5.507C362.126,353.233,362.564,349.919,363.853,347.157z"/>
	<path fill="#110601" stroke="#110601" stroke-width="0.5" d="M551.637,344.684c7.155-4.358,17.309-2.359,22.202,4.454
		c3.157,3.779,3.604,8.935,3.244,13.652c-1.368,7.541-8.295,13.617-15.967,13.889c-8.321,0.64-16.265-5.673-17.809-13.819
		c-0.228-1.491-0.377-2.99-0.552-4.472c2.946-0.123,5.998-1.157,7.857-3.569C552.987,352.032,553.119,347.928,551.637,344.684
		 M559.44,361.081c-2.999,1.517-3.244,6.243-0.307,7.962c2.823,2.166,7.26-0.281,7.234-3.753
		C566.543,361.87,562.422,359.301,559.44,361.081z"/>
	<path fill="#110601" stroke="#110601" stroke-width="0.5" d="M337.469,359.581c1.491-7.199,7.514-13.293,14.889-14.24
		c3.937-0.693,7.804,0.605,11.495,1.815c-1.289,2.762-1.727,6.077-0.342,8.891c1.613,3.577,5.489,5.55,9.321,5.507
		c-0.254,1.613-0.438,3.253-0.701,4.875c-1.447,7.269-7.909,13.179-15.31,13.845c-6.918,0.851-14.091-2.876-17.361-9.023
		C337.39,367.745,337.075,363.545,337.469,359.581 M351.963,364.027c-3.367,0.851-4.542,5.664-1.911,7.953
		c2.183,2.315,6.55,1.508,7.681-1.499C359.583,367.017,355.576,362.598,351.963,364.027z"/>
	<path fill="#542814" stroke="#542814" stroke-width="0.5" d="M536.783,355.46c1.701,1.473,3.77,2.446,5.971,2.929
		c0.175,1.482,0.324,2.981,0.552,4.472c-3.753,6.024-3.279,13.538-1.307,20.088c-1.911-1.306-2.464-3.648-3.253-5.673
		C536.432,370.305,535.371,362.72,536.783,355.46z"/>
	<path fill="#A04715" stroke="#A04715" stroke-width="0.5" d="M577.731,356.802c5.594,5.279,8.304,13.214,7.216,20.825
		c-1.456,6.69-5.542,12.951-11.478,16.467c-5.033,1.92-10.583,3.043-15.906,1.657c-4.875-1.035-8.961-4.104-12.372-7.611
		c-1.341-1.534-2.464-3.288-3.192-5.191c-1.973-6.55-2.446-14.064,1.307-20.088c1.543,8.146,9.487,14.459,17.809,13.819
		c7.672-0.272,14.599-6.348,15.967-13.889C577.381,360.809,577.512,358.801,577.731,356.802z"/>
	<path fill="#542814" stroke="#542814" stroke-width="0.5" d="M372.832,361.554c2.148-0.447,4.191-1.359,5.892-2.762
		c0.421,1.228,0.842,2.481,0.833,3.814c0.307,7.602-1.114,15.292-4.2,22.254c-0.386,1.035-1.236,1.754-2.052,2.438
		c2.218-6.708,3.104-14.775-1.175-20.869C372.394,364.807,372.578,363.168,372.832,361.554z"/>
	<path fill="#A04715" stroke="#A04715" stroke-width="0.5" d="M329.455,381.152c-1.026-7.962,1.894-16.3,8.014-21.57
		c-0.395,3.963-0.079,8.163,1.99,11.671c3.271,6.147,10.443,9.873,17.361,9.023c7.4-0.666,13.863-6.576,15.31-13.845
		c4.279,6.094,3.393,14.161,1.175,20.869c-0.763,1.912-1.911,3.656-3.288,5.182c-4.025,4.051-9.145,7.269-14.924,7.874
		c-5.138,0.78-10.241-0.745-14.889-2.815C334.672,393.734,330.858,387.693,329.455,381.152z"/>
	<path fill="#FFFFFF" stroke="#FFFFFF" stroke-width="0.5" d="M559.44,361.081c2.981-1.78,7.102,0.789,6.927,4.209
		c0.026,3.472-4.411,5.919-7.234,3.753C556.196,367.324,556.442,362.598,559.44,361.081z"/>
	<path fill="#FFFFFF" stroke="#FFFFFF" stroke-width="0.5" d="M351.963,364.027c3.613-1.429,7.62,2.99,5.77,6.454
		c-1.131,3.008-5.498,3.814-7.681,1.499C347.421,369.691,348.596,364.877,351.963,364.027z"/>
	<path fill="#502816" stroke="#502816" stroke-width="0.5" d="M545.192,388.14c3.411,3.507,7.497,6.576,12.372,7.611
		c5.322,1.385,10.873,0.263,15.906-1.657c-3.139,3.867-8.812,4.709-13.495,4.104C554.03,397.136,547.989,393.603,545.192,388.14z"/>
	<path fill="#532714" stroke="#532714" stroke-width="0.5" d="M355.094,400.354c5.778-0.605,10.899-3.823,14.924-7.874
		c-4.63,8.128-15.774,12.626-24.587,8.768c-1.973-0.868-4.051-1.815-5.226-3.709C344.852,399.609,349.955,401.135,355.094,400.354z"
		/>
	<path fill="#5A4A42" stroke="#5A4A42" stroke-width="0.5" d="M441.997,424.353c16.3-1.71,33.118-1.438,48.945,3.227
		c9.654,2.981,19.65,8.348,24.078,17.931c2.227,4.691,2.376,10.013,1.412,15.047c-3.841,13.766-14.634,24.429-26.498,31.768
		c-10.347,6.199-22.272,10.899-34.53,10.005c-11.355-1.096-22.088-5.884-31.461-12.223c-9.996-6.839-18.642-16.248-22.684-27.822
		c-0.956-4.367-1.394-8.909-0.298-13.284c1.315-4.586,3.99-8.707,7.532-11.881C417.673,428.966,430.116,425.897,441.997,424.353
		 M447.346,440.233c-5.954,0.956-12.302,2.49-16.73,6.848c-2.183,2.025-2.525,5.656-0.386,7.848
		c4.893,5.463,12.548,6.681,19.439,7.655c9.786,0.719,20.185,0.377,29.032-4.34c2.727-1.385,5.515-3.7,5.542-7.032
		c-0.333-4.191-4.472-6.55-7.892-8.146C467.224,439.321,457.026,438.979,447.346,440.233z"/>
	<path fill="#6D5A50" stroke="#6D5A50" stroke-width="0.5" d="M447.346,440.233c9.68-1.254,19.878-0.912,29.006,2.832
		c3.42,1.596,7.558,3.955,7.892,8.146c-0.026,3.332-2.815,5.647-5.542,7.032c-8.847,4.717-19.247,5.059-29.032,4.34
		c-6.892-0.973-14.547-2.192-19.439-7.655c-2.139-2.192-1.798-5.822,0.386-7.848C435.044,442.723,441.392,441.189,447.346,440.233z"
		/>
	<path fill="#EBBE94" stroke="#EBBE94" stroke-width="0.5" d="M527.743,442.153c27.445-4.305,55.635,0.57,81.484,10.145
		c26.638,10.11,51.768,25.13,71.673,45.692c9.566,9.987,17.879,21.535,22.429,34.705c4.174,11.846,7.155,24.236,7.488,36.845
		c0.403,15.485-3.902,30.935-11.767,44.245c-12.925,22.079-32.969,38.756-53.303,53.741c-25.542,19.115-51.883,37.941-81.783,49.655
		c-16.16,6.471-33.153,10.627-50.304,13.398c-35.31,4.919-71.462,6.085-106.702,0.018c-21.202-3.779-41.974-10.005-61.615-18.843
		c-22.894-10.101-44.052-23.692-64.22-38.423c-7.295-5.138-14.45-10.583-20.536-17.151c-10.557-11.101-18.484-24.674-23.008-39.3
		c-5.752-18.352-6.076-38.248-1.701-56.933c1.228-5.41,1.403-11.004,2.841-16.371c4.612-18.598,15.029-35.275,27.55-49.576
		c19.624-22.061,45.28-39.177,73.926-46.867c19.834-5.156,41.413-5.384,60.765,1.868c-1.096,4.375-0.658,8.917,0.298,13.284
		c-0.035,1.482-0.132,2.964-0.211,4.446c-17.458,2.999-34.591,7.927-50.988,14.617c-6.664,2.815-13.416,5.489-19.624,9.251
		c-20.264,10.75-39.598,25.253-50.839,45.701c-7.269,13.95-9.163,30.067-8.847,45.596c0.281,27.05,12.232,53.943,32.89,71.585
		c17.607,14.319,35.617,28.532,56.056,38.625c26.147,14.126,55.741,21.421,85.36,22.596c6.795,0.588,13.635,0.342,20.43-0.167
		c25.595-0.666,51.383-4.779,75.11-14.705c16.432-7.19,31.741-16.704,45.92-27.638c12.03-9.224,23.771-18.826,35.196-28.787
		c10.487-9.75,20.623-20.115,28.129-32.399c10.145-15.757,15.029-34.951,13.03-53.636c-0.368-7.778-2.499-15.318-4.419-22.815
		c-2.394-9.145-6.462-17.923-12.451-25.27c-3.981-5.366-9.382-9.391-14.477-13.617c-14.608-10.25-31.417-16.914-48.585-21.465
		c-21.351-5.699-43.342-8.733-65.368-10.101c-0.412-1.184-0.807-2.359-1.14-3.542c0.965-5.033,0.815-10.355-1.412-15.047
		C518.896,443.319,523.455,443.048,527.743,442.153z"/>
	<path fill="#F4C8A4" stroke="#F4C8A4" stroke-width="0.5" d="M516.432,460.558c0.333,1.184,0.728,2.359,1.14,3.542
		c22.026,1.368,44.017,4.402,65.368,10.101c17.168,4.551,33.977,11.215,48.585,21.465c5.094,4.226,10.496,8.251,14.477,13.617
		c5.989,7.348,10.057,16.125,12.451,25.27c1.92,7.497,4.051,15.038,4.419,22.815c1.999,18.685-2.885,37.879-13.03,53.636
		c-7.506,12.284-17.642,22.649-28.129,32.399c-11.425,9.961-23.166,19.562-35.196,28.787c-14.179,10.934-29.488,20.448-45.92,27.638
		c-23.727,9.926-49.515,14.038-75.11,14.705c-6.795,0.509-13.635,0.754-20.43,0.167c-29.62-1.175-59.213-8.47-85.36-22.596
		c-20.439-10.092-38.449-24.306-56.056-38.625c-20.658-17.642-32.61-44.535-32.89-71.585c-0.316-15.529,1.578-31.645,8.847-45.596
		c11.241-20.448,30.575-34.951,50.839-45.701c6.208-3.762,12.96-6.436,19.624-9.251c16.397-6.69,33.53-11.618,50.988-14.617
		c0.079-1.482,0.175-2.964,0.211-4.446c4.042,11.574,12.688,20.983,22.684,27.822c9.373,6.34,20.106,11.127,31.461,12.223
		c12.258,0.894,24.183-3.806,34.53-10.005C501.797,484.987,512.591,474.324,516.432,460.558 M380.811,480.515
		c-3.306,0.473-5.445,4.454-3.867,7.444c1.184,3.63,6.778,4.235,8.681,0.903C388.247,485.478,385.204,479.594,380.811,480.515
		 M537.783,486.653c-4.402,0.57-5.743,6.883-2.376,9.496c2.955,2.674,8.058,0.061,8.155-3.744
		C543.938,489.274,541.027,485.986,537.783,486.653 M498.193,501.462c-4.244,1.306-4.595,7.988-0.579,9.812
		c2.99,1.754,6.883-0.649,7.155-3.972C505.568,503.698,501.771,499.989,498.193,501.462 M411.501,504.198
		c-3.762,2.078-2.99,8.558,1.175,9.68c3.428,1.289,7.015-2.262,6.48-5.699C418.962,504.61,414.552,502.181,411.501,504.198
		 M457.184,505.478c-1.263,9.645-1.175,19.396-1.438,29.093c-0.938,11.583-2.385,23.219-5.664,34.398
		c-4.831,15.09-18.326,26.244-33.109,30.97c-9.005,3.043-18.826,1.719-27.533-1.648c-11.785-4.27-21.158-12.819-31.058-20.167
		c3.744,10.119,7.558,20.264,12.732,29.76c10.32,19.553,24.823,37.423,43.789,49.138c20.185,12.644,45.902,16.599,68.753,9.505
		c11.285-3.56,21.623-9.812,30.523-17.563c20.141-17.677,33.513-41.711,43.07-66.447c0.421-1.517,1.552-3.244,0.351-4.7
		c0.342-0.614,0.675-1.228,1-1.85c-0.438,0.149-1.324,0.438-1.762,0.579c-1.491,0.491-2.902,1.21-4.077,2.245
		c-7.786,6.532-16.107,12.644-25.542,16.555c-8.076,3.297-17.116,5.051-25.726,2.964c-12.1-2.902-23.087-10.294-30.435-20.325
		c-4.218-5.603-6.226-12.46-7.742-19.203c-1.061-5.699-2.28-11.408-2.376-17.221c-0.237-9.075-0.938-18.133-1.876-27.156
		C458.709,511.379,458.727,508.197,457.184,505.478z"/>
	<path fill="#DBAA82" stroke="#DBAA82" stroke-width="0.5" d="M380.811,480.515c4.393-0.921,7.436,4.963,4.814,8.347
		c-1.903,3.332-7.497,2.727-8.681-0.903C375.366,484.969,377.506,480.988,380.811,480.515z"/>
	<path fill="#DBAA82" stroke="#DBAA82" stroke-width="0.5" d="M537.783,486.653c3.244-0.666,6.155,2.622,5.778,5.752
		c-0.096,3.805-5.2,6.418-8.155,3.744C532.039,493.536,533.381,487.223,537.783,486.653z"/>
	<path fill="#DBAA82" stroke="#DBAA82" stroke-width="0.5" d="M498.193,501.462c3.578-1.473,7.374,2.236,6.576,5.84
		c-0.272,3.323-4.165,5.726-7.155,3.972C493.599,509.45,493.95,502.769,498.193,501.462z"/>
	<path fill="#E78C64" stroke="#E78C64" stroke-width="0.5" d="M998.666,512.572c0.061-3.963-0.579-8.067,0.886-11.855
		c0.026,0.851,0.079,2.569,0.096,3.428c0.123,16.379,0.167,32.767-0.193,49.147c-0.491-2.131-0.938-4.288-0.868-6.48
		C998.701,535.396,998.631,523.98,998.666,512.572z"/>
	<path fill="#DBAA82" stroke="#DBAA82" stroke-width="0.5" d="M411.501,504.198c3.051-2.017,7.462,0.412,7.655,3.981
		c0.535,3.437-3.051,6.988-6.48,5.699C408.511,512.756,407.739,506.276,411.501,504.198z"/>
	<path fill="#DBAA82" stroke="#DBAA82" stroke-width="0.5" d="M457.184,505.478c1.543,2.718,1.526,5.901,1.876,8.926
		c0.938,9.023,1.64,18.08,1.876,27.156c0.096,5.813,1.315,11.522,2.376,17.221c1.517,6.743,3.525,13.6,7.742,19.203
		c7.348,10.031,18.335,17.423,30.435,20.325c8.611,2.087,17.651,0.333,25.726-2.964c9.435-3.911,17.756-10.022,25.542-16.555
		c1.175-1.035,2.587-1.754,4.077-2.245c-8.084,13.819-20.413,25.779-35.731,31.093c-7.567,2.517-15.906,3.42-23.701,1.412
		l-1.035-0.342c-5.717-1.876-10.943-4.972-15.792-8.488c-3.183-2.315-6.462-4.656-8.777-7.892
		c-2.569-3.525-4.524-7.444-6.962-11.057c-2.367-3.49-4.042-7.392-5.208-11.434c-0.728,2.701-1.35,5.436-2.148,8.128
		c-1.955,6.006-6.041,10.934-9.408,16.178c-4.726,7.453-12.188,12.732-20.001,16.572c-10.96,5.147-23.911,3.192-34.696-1.438
		c-11.618-4.866-20.641-13.863-30.523-21.36c1.841,2.639,4.147,4.893,6.217,7.357c1.008,3.963,4.297,6.638,6.34,10.04
		c12.942,18.405,29.321,35.415,50.357,44.342c21.956,9.312,48.042,9.444,69.621-1.096c21.561-10.285,37.388-29.313,49.708-49.278
		c1.947-3.639,5.13-6.857,5.366-11.188c2.324-3.464,4.84-6.795,7.137-10.277c1.201,1.456,0.07,3.183-0.351,4.7
		c-9.557,24.736-22.929,48.77-43.07,66.447c-8.9,7.751-19.238,14.003-30.523,17.563c-22.85,7.094-48.568,3.139-68.753-9.505
		c-18.966-11.715-33.469-29.584-43.789-49.138c-5.173-9.496-8.988-19.641-12.732-29.76c9.899,7.348,19.273,15.897,31.058,20.167
		c8.707,3.367,18.528,4.691,27.533,1.648c14.783-4.726,28.278-15.88,33.109-30.97c3.279-11.18,4.726-22.815,5.664-34.398
		C456.009,524.874,455.921,515.124,457.184,505.478z"/>
	<path fill="#4F2B12" stroke="#4F2B12" stroke-width="0.5" d="M457.482,577.966c0.798-2.692,1.42-5.428,2.148-8.128
		c1.166,4.042,2.841,7.944,5.208,11.434c-0.009,0.465-0.044,1.394-0.053,1.859c-0.368,3.805-0.237,7.637-0.105,11.451
		c-0.088,7.251,0.526,14.556,2.175,21.623c0.386,3.656,4.814,3.805,7.681,4.191c4.174,0.509,8.4,0.5,12.574,0.009
		c2.701-0.167,5.384-0.763,7.883-1.815c3.402-1.982,2.701-6.261,2.411-9.54c7.795,2.008,16.134,1.105,23.701-1.412
		c15.318-5.314,27.647-17.274,35.731-31.093c0.438-0.14,1.324-0.43,1.762-0.579c-0.324,0.623-0.658,1.236-1,1.85
		c-2.297,3.481-4.814,6.813-7.137,10.277c-2.218,2.867-4.551,5.647-6.796,8.488c-9.785,11.706-21.298,22.088-34.442,29.909
		c-13.363,7.909-28.497,13.161-44.052,14.126c-5.726-1.271-11.864-1.289-17.589-0.026c-13.135-0.868-25.998-4.875-37.555-11.127
		c-10.575-5.726-20.071-13.258-28.716-21.579c-4.226-4.06-8.269-8.304-12.241-12.609c-2.069-2.464-4.375-4.717-6.217-7.357
		c9.882,7.497,18.905,16.493,30.523,21.36c10.785,4.63,23.736,6.585,34.696,1.438c0.158,2.025,0.114,4.121,0.763,6.085
		c1.061,2.446,3.884,3.332,6.348,3.542c4.665,0.719,9.417,0.588,14.099,0c3.332-0.377,6.909-0.842,9.68-2.902
		c1.947-6.971,1.464-14.363,1.289-21.526C459.797,589.883,459.998,583.605,457.482,577.966z"/>
	<path fill="#EADCC5" stroke="#EADCC5" stroke-width="0.5" d="M448.073,594.144c3.367-5.243,7.453-10.171,9.408-16.178
		c2.517,5.638,2.315,11.916,2.771,17.949c0.175,7.164,0.658,14.555-1.289,21.526c-2.771,2.061-6.348,2.525-9.68,2.902
		c-4.63-1.096-9.487-1.149-14.099,0c-2.464-0.21-5.287-1.096-6.348-3.542c-0.649-1.964-0.605-4.06-0.763-6.085
		C435.885,606.876,443.347,601.597,448.073,594.144z"/>
	<path fill="#EADCC5" stroke="#EADCC5" stroke-width="0.5" d="M464.839,581.272c2.438,3.613,4.393,7.532,6.962,11.057
		c2.315,3.236,5.594,5.577,8.777,7.892c4.849,3.516,10.075,6.611,15.792,8.488c0.167,3.349-0.342,6.682-1.377,9.882
		c-2.499,1.052-5.182,1.648-7.883,1.815c-4.095-1.193-8.488-1.21-12.574-0.009c-2.867-0.386-7.295-0.535-7.681-4.191
		c-1.648-7.067-2.262-14.371-2.175-21.623c1.105-3.727,1.342-7.725,0.105-11.451C464.795,582.666,464.83,581.737,464.839,581.272z"
		/>
	<path fill="#FBF0D9" stroke="#FBF0D9" stroke-width="0.5" d="M464.786,583.131c1.236,3.727,1,7.725-0.105,11.451
		C464.549,590.768,464.418,586.937,464.786,583.131z"/>
	<path fill="#EBBE94" stroke="#EBBE94" stroke-width="0.5" d="M543.666,596.582c2.245-2.841,4.577-5.621,6.796-8.488
		c-0.237,4.332-3.42,7.55-5.366,11.188c-12.32,19.966-28.146,38.993-49.708,49.278c-21.579,10.54-47.665,10.408-69.621,1.096
		c-21.035-8.926-37.415-25.937-50.357-44.342c-2.043-3.402-5.331-6.076-6.34-10.04c3.972,4.305,8.014,8.549,12.241,12.609
		l-1.122,0.026c8.304,10.513,17.633,20.527,29.207,27.489c12.346,7.672,26.814,11.408,41.246,12.206
		c19.448,1.078,39.712-1.692,56.819-11.487c16.134-9.066,28.374-23.727,37.423-39.633L543.666,596.582z"/>
	<path fill="#FFDFC5" stroke="#FFDFC5" stroke-width="0.5" d="M509.224,626.491c13.144-7.821,24.657-18.203,34.442-29.909
		l1.219-0.096c-9.049,15.906-21.29,30.567-37.423,39.633c-17.107,9.794-37.371,12.565-56.819,11.487
		c-14.433-0.798-28.901-4.533-41.246-12.206c-11.574-6.962-20.904-16.976-29.207-27.489l1.122-0.026
		c8.646,8.321,18.142,15.853,28.716,21.579c11.557,6.252,24.42,10.259,37.555,11.127c5.849,0.517,11.732,0.535,17.589,0.026
		C480.727,639.652,495.861,634.4,509.224,626.491z"/>
	<path fill="#00FF03" stroke="#00FF03" stroke-width="0.5" d="M979.752,607.586c-0.868-1.008,0.447-2.367,0.631-3.437
		c1.254,1.464,2.481,2.964,3.735,4.454C982.646,608.244,981.164,608.033,979.752,607.586z"/>
	<path fill="#FAEFD8" stroke="#FAEFD8" stroke-width="0.5" d="M496.37,608.708l1.035,0.342c0.289,3.279,0.991,7.558-2.411,9.54
		C496.028,615.39,496.536,612.058,496.37,608.708z"/>
	<path fill="#FBF0D9" stroke="#FBF0D9" stroke-width="0.5" d="M435.184,620.344c4.612-1.149,9.47-1.096,14.099,0
		C444.601,620.932,439.849,621.063,435.184,620.344z"/>
	<path fill="#FCF1DA" stroke="#FCF1DA" stroke-width="0.5" d="M474.536,620.397c4.086-1.201,8.479-1.184,12.574,0.009
		C482.936,620.896,478.71,620.905,474.536,620.397z"/>
	<path fill="#381400" stroke="#381400" stroke-width="0.5" d="M447.582,640.59c5.726-1.263,11.864-1.245,17.589,0.026
		C459.314,641.125,453.431,641.107,447.582,640.59z"/>
	<path opacity="0.91" fill="#00E702" stroke="#00E702" stroke-width="0.5" enable-background="new    " d="M209.933,688.483
		c4.665-0.351,10.277-1.122,13.898,2.595C219.052,691.228,214.493,689.676,209.933,688.483z"/>
	<path fill="#D0985A" stroke="#D0985A" stroke-width="0.5" d="M998.666,512.572c0.061-3.963-0.579-8.067,0.886-11.855
		c-0.053-12.381-0.596-24.762-1.57-37.099c-8.707,3.218-18.203,3.77-27.366,2.753c-13.942-1.499-27.375-5.857-40.475-10.697
		c-8.198-2.929-14.669-9.163-20.001-15.844c-17.318,31.592-32.855,64.149-51.356,95.075c-7.313,12.022-14.608,24.218-24.359,34.469
		c-5.664,6.462-12.267,11.995-18.37,18.01c13.907-9.102,27.664-18.449,41.518-27.647c-28.26,30.198-58.774,58.66-93.199,81.765
		c-12.618,8.4-25.84,15.958-39.738,22.035c-11.004,4.884-22.535,8.584-34.346,10.961c-4.218,1.771-7.216,5.489-10.487,8.558
		c-1.184-2.999-2.376-5.989-3.507-9.005c-4.682,1.447-9.391,2.876-14.222,3.665c-4.244,0.798-8.532,1.719-12.863,1.306
		c3.516-2.087,7.769-1.99,11.636-3.016c14.494-3.613,28.48-9.093,41.887-15.66c15.853-7.813,30.961-17.142,45.192-27.62
		c9.426-6.804,18.317-14.31,27.015-22.017c2.122,6.024,4.156,12.083,6.453,18.045c1.017-1.683,2.35-2.797,4.305-3.016
		c4.726-17.344,6.261-35.415,7.041-53.321c0.465-16.142-0.035-32.32-1.684-48.384c9.373,6.033,18.852,11.899,28.252,17.887
		c2.771-36.494-9.435-73.216-30.707-102.669c13.784,5.498,27.805,10.417,41.659,15.774c-11.504-19.869-26.708-37.651-44.692-51.935
		c-10.741-8.847-18.3-20.834-24.701-33.022c9.689,6.401,21.22,9.698,32.75,10.496c-15.906-6.208-28.541-18.554-37.993-32.487
		c5.147,2.253,10.987,1.824,16.125-0.237c6.848-2.692,12.951-7.041,18.352-11.995c-11.259,4.077-23.64,0.412-33.469-5.577
		c12.714-1.359,25.051-7.927,32.25-18.668c4.13-6.059,6.962-13.039,8.041-20.299c-2.753,4.788-5.428,9.733-9.505,13.556
		c-7.365,7.62-17.809,11.294-28.129,12.547c36.064-23.28,61.519-62.79,66.596-105.527c1.71-16.371,0.351-33.758-7.804-48.375
		c-7.453-13.644-22.123-23.289-37.774-23.806c-15.055-0.596-29.383,5.322-42.57,11.986c-10.18,5.156-19.834,11.276-30.067,16.309
		c-4.945,2.332-10.32,4.744-15.923,3.902c-7.628-1.035-15.011-3.297-22.421-5.322c-18.107-5.191-36.143-10.662-54.346-15.494
		c-29.883-7.997-60.16-14.678-90.832-18.843c11.399-5.445,23.789-8.418,36.213-10.391c-4.761-4.937-12.109-5.2-18.519-5.34
		c-13.196,0.219-26.314,2.394-39.133,5.419c16.949-8.707,29.006-24.683,36.476-41.878c-14.389,17.283-35.415,27.48-56.819,33.127
		c4.165-4.34,6.55-10.206,6.717-16.213c0.71-10.925-2.701-21.535-6.532-31.619c-0.167,15.573-9.689,29.243-21.351,38.782
		c2.289-11.741,2.113-24.209-2.455-35.407c-5.331-13.538-16.108-24.481-28.804-31.347h-0.254
		c8.479,7.988,15.073,18.265,17.388,29.777c1.903,8.9,1.306,18.142-0.561,26.989c-15.792,5.401-32.618,8.47-49.34,7.19
		c-13.363-1.043-26.796-5.778-36.608-15.143c-6.006-5.489-10.338-12.495-13.819-19.773c2.42,15.836,10.487,31.18,23.604,40.694
		c8.453,6.34,18.747,9.672,29.102,11.259c-12.881,7.629-29.032,12.618-43.64,7.023c3.683,3.42,7.55,6.717,11.916,9.242
		c1.263-0.684,1.561-0.158,1.061,1.71c-41.317,6.769-81.493,18.931-121.626,30.619c1.342-1.131-10.934,4.568-15.196,3.919
		c-3.911,0.693-7.944,1.727-11.907,0.824c-5.559-1.236-10.627-3.937-15.669-6.48c-15.415-8.146-30.356-17.37-46.814-23.315
		c-11.364-4.165-23.718-6.725-35.784-4.56c-13.468,2.446-25.42,11.75-31.11,24.201c-7.278,15.503-7.129,33.372-4.2,49.936
		c5.252,27.971,18.72,54.101,37.178,75.645c9.987,11.574,21.579,21.763,34.451,30.023c-11.548-1.14-22.789-6.839-29.795-16.204
		c-2.455-3.078-4.209-6.611-6.05-10.057c1.903,12.153,8.119,23.894,18.203,31.189c6.471,4.788,14.31,7.278,22.193,8.558
		c-9.952,5.735-22.368,9.68-33.565,5.235c5.936,5.524,12.784,10.338,20.553,12.872c4.603,1.526,9.698,1.456,14.152-0.561
		c-9.487,13.951-22.105,26.507-38.16,32.513c10.601-0.544,21.158-3.525,30.356-8.856c-6.287,11.443-13.53,22.684-23.666,31.11
		c-18.028,14.266-33.232,32.066-44.815,51.918c13.889-4.998,27.682-10.277,41.492-15.476c-20.886,29.041-33.057,65.07-30.733,101.02
		c0.149,0.307,0.438,0.921,0.579,1.228c9.259-5.892,18.589-11.662,27.813-17.607c-1.587,15.564-2.157,31.233-1.666,46.876
		c-0.079,5.226,0.947,10.469,0.167,15.669c0.21,0.193,0.64,0.596,0.851,0.789c0.088,5.761,0.982,11.478,1.719,17.186
		c2.35,15.95,6.085,31.899,13.161,46.472c2.99-9.619,6.313-19.133,9.224-28.769c4.016,9.557,9.636,18.414,16.432,26.226
		c8.4,9.023,18.431,16.344,28.874,22.815c11.793,7.199,24.183,13.433,36.915,18.799c-2.297,0.219-4.595,0.465-6.866,0.781
		c3.525,4.779,7.479,9.233,10.996,14.021c-4.244-4.112-7.628-9.04-11.215-13.714c-0.324-0.026-0.973-0.07-1.298-0.096l-0.132-0.009
		c-4.779,0.149-9.338-1.403-13.898-2.595c-2.666-0.281-5.41-0.763-8.023-0.009c-2.253,0.649-3.884,2.446-5.454,4.077
		c-4.761,5.112-9.496,10.259-13.88,15.704c-0.132,0.175-0.403,0.508-0.535,0.684c-5.813,7.094-11.232,14.512-16.353,22.123
		c-3.525,5.314-6.909,10.724-10.11,16.239c-3.805,6.541-7.383,13.214-10.724,20.009c-5.708,11.548-10.759,23.429-15.073,35.565
		c-3.314,9.084-6.041,18.37-8.461,27.726c-1.789-6.699-3.534-13.407-5.445-20.062c-1.359,2.604-2.683,5.235-3.981,7.865
		c-5.866,12.021-11.294,24.245-16.362,36.617c-7.962,19.518-15.239,39.317-21.658,59.397c-3.35-6.901-6.515-13.889-9.777-20.825
		c-0.447,1.271-0.859,2.552-1.21,3.876c-1.526,7.304-2.745,14.678-3.446,22.114c-1.42,13.512-1.008,27.129,0.158,40.641
		c1.306,9.707,2.692,19.448,5.428,28.874c-8.312-6.804-16.335-13.968-24.674-20.746c0.614,5.182,1.289,10.364,1.806,15.564
		c1.149,8.76,2.315,17.519,3.455,26.279c1.447,9.935,2.894,19.878,4.34,29.821c2.052,12.635,3.99,25.288,6.287,37.879
		c1.999,11.18,4.174,22.324,6.787,33.381c0.772,3.235,1.692,6.445,2.543,9.672c1.333,4.244,3.551,8.155,6.261,11.679
		c3.385-5.322,8.058-9.786,13.53-12.916c13.153-7.444,28.611-8.856,43.412-9.838c8.409-0.649,16.406,2.902,23.464,7.137
		c0.272-0.859,0.552-1.692,0.851-2.508c5.007-14.757,9.672-29.628,14.626-44.403c-3.946,4.139-7.681,8.479-11.627,12.618
		c0.938-4.989,1.78-10.005,2.85-14.968c0.316-1.719,1.394-3.122,2.394-4.481c-1.052-1.482-1.061-3.253-0.596-4.919
		c7.593-34.846,16.984-69.34,28.488-103.081c0.096,5.059-1.192,9.987-1.666,15.003c-1.911,14.003-3.393,28.076-4.524,42.167
		c-0.877,8.602-0.807,17.274-1.78,25.867c0.43,4.787,0.061,9.601,0.035,14.406c-0.21,10.82,0,21.64,0.21,32.452
		c1.166,20.948,2.683,41.974,6.699,62.589c-0.658,0.219-1.306,0.438-1.955,0.684c8.672,10.811,16.414,22.473,22.21,35.1
		c3.464,7.725,6.41,15.906,6.69,24.464c0.114,4.954-1.061,10.391-4.937,13.793c-5.182,4.384-12.267,6.594-18.992,5.27
		c2.823,19.378,5.84,38.774,10.733,57.766c1.859,6.646,3.218,13.521,6.173,19.79c3.972-8.488,7.742-17.072,11.539-25.639
		c0.956,5.822,1.64,11.706,3.157,17.432c3.35,14.073,9.461,27.287,16.721,39.738c24.674,15.546,46.104,35.907,64.044,58.827
		c2.052-0.281,3.841,0.886,5.603,1.754c4.56,2.385,9.198,4.744,14.196,6.085c-5.787-29.602-13.223-58.888-21.921-87.771
		c-8.444-27.191-17.914-54.346-32.268-79.056c-4.191-7.427-9.61-14.012-14.757-20.764c7.821,3.955,14.582,9.663,21.509,14.976
		c-2.175-8.593-5.051-17.002-6.997-25.656c-9.277-38.704-12.127-78.758-10.434-118.461c1.14-31.005,5.419-61.843,11.487-92.252
		c4.016-20.229,9.137-40.256,15.152-59.984c11.083-37.871,25.963-74.628,43.675-109.868c3.797-7.015,7.567-14.047,11.381-21.053
		c1.07-2.122,2.245-4.191,3.481-6.208c9.181-14.88,18.265-29.865,29.199-43.544c4.989-5.822,9.575-12.021,14.766-17.668
		c1.841-2.359,5.024-1.797,7.646-2.201c4.375-0.587,8.795-0.605,13.205-0.85c-0.614-0.272-1.841-0.807-2.455-1.078
		c0.228-0.202,0.684-0.587,0.912-0.78c-21.202-3.779-41.974-10.005-61.615-18.843c-22.894-10.101-44.052-23.692-64.22-38.423
		c-7.295-5.138-14.45-10.583-20.536-17.151c-10.557-11.101-18.484-24.674-23.008-39.3c-5.752-18.352-6.076-38.248-1.701-56.933
		c1.228-5.41,1.403-11.004,2.841-16.37c4.612-18.598,15.029-35.275,27.55-49.576c19.624-22.061,45.28-39.177,73.926-46.867
		c19.834-5.156,41.413-5.384,60.765,1.868c1.315-4.586,3.99-8.707,7.532-11.881c9.18-8.155,21.623-11.223,33.504-12.767
		c16.3-1.71,33.118-1.438,48.945,3.227c9.654,2.981,19.65,8.348,24.078,17.931c3.876-2.192,8.435-2.464,12.723-3.358
		c27.445-4.305,55.635,0.57,81.484,10.145c26.638,10.11,51.768,25.13,71.673,45.692c9.566,9.987,17.879,21.535,22.429,34.705
		c4.174,11.846,7.155,24.236,7.488,36.845c0.403,15.485-3.902,30.935-11.767,44.245c-12.925,22.079-32.969,38.756-53.303,53.741
		c-25.542,19.115-51.883,37.941-81.783,49.655c-16.16,6.471-33.153,10.627-50.304,13.398c0.903,0.272,1.815,0.552,2.736,0.859
		c-1.149,0.21-2.28,0.43-3.402,0.658c3.165,3.121,6.699,5.857,9.733,9.128c4.849,5.103,10.25,9.698,14.556,15.31
		c4.665,5.586,9.4,11.145,13.477,17.195c5.261,7.865,11.022,15.415,15.555,23.754c6.462,10.461,12.495,21.184,17.87,32.25
		c16.195,31.584,29.137,64.763,39.949,98.557c5.884,19.08,11.495,38.256,15.923,57.722c6.971,29.883,12.46,60.133,15.783,90.647
		c2.648,26.437,4.27,53.022,3.349,79.599c-1.157,35.573-5.884,71.471-18.571,104.914c-9.829,25.621-25.121,50.041-47.788,66.149
		c-12.091,8.724-26.007,14.827-40.562,18.036c-20.202,4.621-41.273,3.937-61.624,0.631c-1.342-0.351-3.069-0.438-3.674-1.894
		c-9.864,27.12-18.028,55.004-22.061,83.624c9.259,0.07,18.519-0.105,27.769-0.5c31.014-33.337,72.777-57.31,118.04-64.079
		c0.78-0.21,1.578-0.412,2.376-0.588c-0.588,0.693-1.149,1.412-1.745,2.104c-16.353,16.765-32.075,34.258-45.613,53.408
		c15.134-3.06,29.979-7.593,44.333-13.266c25.025-9.908,48.735-24.043,67.499-43.517c21.833-22.052,36.696-51.33,39.879-82.344
		c3.963,8.505,7.62,17.151,11.618,25.648c3.534-7.304,4.884-15.468,7.058-23.245c9.794-41.659,14.012-84.404,16.686-127.036
		c5.428,8.953,9.417,18.721,14.933,27.62c1.526-21.675,1.701-43.43,1.052-65.149c-0.298-6.111-0.666-12.223-1.114-18.326
		c-1.683-20.246-4.314-40.563-10.303-60.037c7.155,9.382,13.994,18.992,21.088,28.418c-0.491-6.112-0.956-12.223-1.578-18.326
		c-1-10.101-2.131-20.194-3.516-30.251c-1.508-11.232-3.235-22.438-5.112-33.609c-1.534-8.628-3.06-17.256-4.761-25.849
		c-1.841-9.338-3.753-18.659-5.848-27.927c-2.525-11.276-5.094-22.552-8.014-33.723c-0.053-0.219-0.158-0.658-0.219-0.868
		c-6.971-28.366-15.073-56.451-23.771-84.334c-1.824-6.682-4.63-13.082-5.927-19.895c3.192,4.84,4.972,10.417,7.734,15.503
		c11.671,24.736,23.035,49.655,32.934,75.171c10.557-1.815,19.229-8.418,27.427-14.871c6.357-4.91,12.574-10.013,18.615-15.31
		c6.041-5.261,11.899-10.741,17.651-16.318c0.245-0.237,0.728-0.719,0.965-0.956c7.453-7.453,14.678-15.125,21.579-23.096
		c0.973-1.149,1.938-2.297,2.955-3.411c3.499-4.165,6.971-8.356,10.276-12.67c0.833-1.061,1.657-2.131,2.499-3.192
		c9.426-12.144,17.923-24.981,25.753-38.195c0.544,7.058,1.508,14.082,1.947,21.149c0.395-0.193,1.184-0.588,1.578-0.78
		c22.237-30.672,41.65-63.316,59.257-96.838l-0.053-0.035c0.605-1.149,1.228-2.297,1.859-3.429
		c2.315,7.892,4.121,15.958,6.839,23.727c1.973-4.972,3.972-9.935,5.656-15.003c3.569-10.654,6.138-21.614,7.962-32.689
		c0.535-3.279,0.973-6.576,1.35-9.873c0.824-7.822,1.324-15.669,1.412-23.526c0-6.55-0.316-13.1-0.877-19.615
		c1.754,2.122,3.542,4.253,5.349,6.357c1.254,1.464,2.481,2.964,3.735,4.454c0.447,0.509,0.903,1.026,1.377,1.552
		c3.937,4.595,7.848,9.207,11.732,13.845c0.079-1.482,0.175-2.955,0.281-4.428c0.947-22.079,1.833-44.175,1.947-66.28
		c-0.491-2.131-0.938-4.288-0.868-6.48C998.701,535.396,998.631,523.98,998.666,512.572z M209.39,232.87
		c-0.438,12.591-4.375,24.779-9.242,36.301c-2.674,6.041-5.305,12.171-8.909,17.721c-14.661-6.506-28.716-14.924-39.861-26.595
		c-8.575-8.926-15.608-20.036-17.098-32.539c-0.737-7.041-0.184-15.011,4.928-20.413c7.19-7.734,18.308-9.899,28.453-9.943
		c12.083,0.202,24.806,3.56,33.732,12.092C207.706,215.421,209.635,224.513,209.39,232.87z M408.598,400.363
		c-3.42,12.626-8.286,25.113-15.958,35.784c-15.52-6.997-32.811-10.461-49.813-8.628c-8.751,0.737-17.326,2.955-25.586,5.901
		c-1.236,0.737-1.719-1.026-2.245-1.727c-8.795-14.845-13.907-31.627-16.441-48.629c-2.289-15.424-2.394-31.154-0.649-46.639
		c2.446-19.852,8.119-39.677,19.15-56.53c7.059-10.461,16.677-20.053,29.155-23.499c9.102-2.683,19.106-1,27.243,3.735
		c9.812,5.664,17.318,14.608,22.991,24.288c8.988,15.599,13.951,33.232,16.239,51.006
		C415.236,357.065,414.236,379.266,408.598,400.363z M593.322,417.014c-0.745-0.228-1.482-0.438-2.21-0.64
		c-1.482,4.893-3.718,9.593-6.269,14.021c-12.109-5.287-25.542-7.918-38.721-6.164c-9.47,1.008-18.475,4.393-26.989,8.532
		c-14.021-25.209-18.519-54.679-17.975-83.212c0.193-17.291,2.762-34.609,7.918-51.128c4.086-12.583,9.733-24.937,18.607-34.907
		c5.761-6.155,13.284-11.294,21.921-11.907c9.049-0.763,17.546,4.042,23.797,10.224c9.084,9.303,15.108,21.158,19.211,33.39
		c4.226,12.144,6.647,24.832,8.085,37.59c0.184,2.473,1.324,5.121,0.061,7.479C606.255,365.728,604.642,393.34,593.322,417.014z
		 M718.999,218.946c2.552-8.199,9.102-14.591,16.581-18.484c10.338-5.366,22.5-6.936,33.925-4.867
		c7.804,1.605,15.73,5.384,20.159,12.285c4.305,6.611,4.305,14.941,3.569,22.508c-2.131,16.818-11.978,31.654-23.946,43.219
		c-9.996,9.558-21.596,17.493-34.17,23.236c-7.357-14.932-13.451-30.619-16.607-47.007
		C716.657,239.665,715.912,228.95,718.999,218.946z"/>
	<path fill="#9F7745" stroke="#9F7745" stroke-width="0.5" d="M1067.48,899.468c10.575-2.394,21.474-3.507,32.303-2.841
		c6.585,0.281,13.021,1.719,19.518,2.674c0.254,0.035,0.754,0.105,1.008,0.14c3.341,1.587,6.988,2.341,10.426,3.683
		c7.593,2.806,14.819,6.559,21.588,10.996c17.326,11.583,30.821,28.357,39.563,47.191c5.243,11.241,8.917,23.175,11.337,35.337
		c1.736,8.549,2.639,17.23,3.385,25.91c0.885,19.045,0.333,38.309-3.832,56.986c-0.298,1.333-0.64,2.657-0.93,4.007
		c-3.086,12.67-7.558,24.99-13.196,36.74c-4.647,9.715-10.075,19.054-16.099,27.971c-2.683,3.954-5.506,7.813-8.348,11.653
		c-10.925,14.196-23.201,27.349-36.485,39.361c-2.289,2.069-4.568,4.147-6.91,6.147c-4.805,4.174-9.742,8.172-14.704,12.144
		c-5.831,4.524-11.758,8.935-17.8,13.179c-3.604,2.525-7.243,5.007-10.899,7.462c-15.722,10.399-32.048,19.86-48.761,28.567
		c-17.993,9.242-36.398,17.73-55.364,24.797c9.067,3.367,18.317,6.226,27.489,9.312c4.454,1.57,9.014,2.867,13.416,4.621
		c-25.797,7.269-51.646,14.363-77.469,21.561c-5.857,1.64-11.715,3.253-17.572,4.875c-4.91,1.403-9.829,2.762-14.748,4.112
		c-2.569,0.693-5.129,1.412-7.664,2.157c1.806,2.49,3.665,4.945,5.726,7.251c6.287,7.041,14.345,13.758,24.245,14.091
		c-31.312,5.086-62.755,9.601-94.348,12.539c16.257-30.961,30.514-63.316,38.204-97.557c4.656-20.448,2.289-42.062-4.963-61.606
		c-9.917-26.217-27.34-48.971-47.305-68.358c-8.716-8.637-18.168-16.502-28.076-23.727c-1.526-1.149-3.428-1.561-5.235-1.938
		c-5.349-1.061-10.768-1.657-16.186-2.131c-0.298-6.111-0.666-12.223-1.114-18.326c2.894-1.797,5.84-3.499,8.777-5.235
		c3.025-1.815,6.05-3.648,9.066-5.498c12.653-7.786,25.113-15.932,36.871-25.034c2.683-2.122,5.305-4.305,7.83-6.611
		c2.49-2.131,4.779-4.489,7.146-6.769c-2.446,4.332-5.243,8.453-7.725,12.758c-1.157,1.806-2.297,3.613-3.402,5.454
		c-5.945,9.759-12.048,19.431-17.905,29.251c12.495-7.892,24.639-16.353,36.433-25.262c11.653-8.821,23.017-18.072,33.565-28.199
		c6.489-6.173,12.723-12.644,18.308-19.659c5.533-6.629,10.013-14.056,13.722-21.842c-0.947,8.084-2.139,16.151-3.025,24.245
		c-1.28,9.452-2.446,18.922-3.648,28.383c5.594-6.454,11.092-13.004,16.66-19.475c8.365-9.645,16.713-19.308,25.121-28.909
		c4.305-4.893,8.611-9.786,12.898-14.687c14.38-16.257,28.839-32.443,43.36-48.577c5.919-6.392,11.522-13.117,18.142-18.808
		c5.173-4.446,10.724-8.461,16.599-11.951C1046.12,906.342,1056.625,902.195,1067.48,899.468z"/>
	<path fill="#BF8A4F" stroke="#BF8A4F" stroke-width="0.5" d="M178.367,1040.165c0.745-3.735,1.149-7.523,1.815-11.267
		c0.123,3.148,0.167,6.348,1.07,9.408c0.43,4.787,0.061,9.601,0.035,14.406c-0.21,10.82,0,21.64,0.21,32.452
		c1.166,20.948,2.683,41.974,6.699,62.589c-0.658,0.219-1.306,0.438-1.955,0.684c-5.787-7.041-11.969-13.749-18.694-19.896
		c1.079-4.875,0.71-9.882,1.026-14.818c1.377-25.332,3.893-50.857,11.232-75.241
		C179.446,1038.902,178.727,1039.744,178.367,1040.165z"/>
	<linearGradient id="SVGID_1_" gradientUnits="userSpaceOnUse" x1="458.749" y1="1353.7043" x2="458.749" y2="730.5801">
		<stop  offset="0" style="stop-color:#AF814C"/>
		<stop  offset="1" style="stop-color:#CB9458"/>
	</linearGradient>
	<path fill="url(#SVGID_1_)" stroke="#AF814C" stroke-width="0.5" d="M655.84,1076.659c-3.323-30.514-8.812-60.765-15.783-90.647
		c-4.428-19.466-10.04-38.642-15.923-57.722c-10.811-33.793-23.753-66.973-39.949-98.557c-5.375-11.066-11.408-21.789-17.87-32.25
		c-4.533-8.339-10.294-15.888-15.555-23.754c-4.077-6.05-8.812-11.609-13.477-17.195c-4.305-5.612-9.707-10.206-14.556-15.31
		c-3.034-3.271-6.568-6.006-9.733-9.128c1.122-0.228,2.253-0.447,3.402-0.658c-0.921-0.307-1.833-0.588-2.736-0.859
		c-35.31,4.919-71.462,6.085-106.702,0.017c-0.228,0.193-0.684,0.579-0.912,0.78c0.614,0.272,1.841,0.807,2.455,1.078
		c-4.41,0.246-8.83,0.263-13.205,0.85c-2.622,0.403-5.805-0.158-7.646,2.201c-5.191,5.647-9.777,11.846-14.766,17.668
		c-10.934,13.679-20.018,28.664-29.199,43.544c-1.236,2.017-2.411,4.086-3.481,6.208c-3.814,7.006-7.585,14.038-11.381,21.053
		c-17.712,35.24-32.592,71.997-43.675,109.868c-6.015,19.729-11.136,39.756-15.152,59.984
		c-6.068,30.409-10.347,61.247-11.487,92.252c-1.692,39.703,1.157,79.757,10.434,118.461c1.947,8.654,4.823,17.063,6.997,25.656
		c39.475,32.925,68.832,76.635,89.288,123.502c11.495-0.903,22.587-4.156,33.662-7.155c16.493-4.472,33.521-7.286,50.655-6.909
		c14.284-16.923,31.329-31.601,50.392-42.886c3.13-2.192,6.454-4.095,9.917-5.699c-0.544,1.096-1.07,2.227-1.631,3.332
		c-7.804,16.248-14.95,32.82-21.255,49.708c0.605,1.456,2.332,1.543,3.674,1.894c20.351,3.306,41.422,3.99,61.624-0.631
		c14.555-3.209,28.471-9.312,40.562-18.036c22.666-16.107,37.958-40.527,47.788-66.149c12.688-33.443,17.414-69.34,18.571-104.914
		C660.11,1129.681,658.488,1103.096,655.84,1076.659z"/>
	<path fill="#5A4A42" stroke="#5A4A42" stroke-width="0.5" d="M85.361,1119.712c13.153-7.444,28.611-8.856,43.412-9.838
		c8.409-0.649,16.406,2.902,23.464,7.137c5.454,3.341,10.461,7.365,15.31,11.53c6.725,6.147,12.907,12.854,18.694,19.896
		c8.672,10.811,16.414,22.473,22.21,35.1c3.464,7.725,6.41,15.906,6.69,24.464c0.114,4.954-1.061,10.391-4.937,13.793
		c-5.182,4.384-12.267,6.594-18.992,5.27c-4.752-1.385-9.023-4.174-12.372-7.795c-5.831-6.296-10.013-13.942-13.047-21.921
		c0.658,6.532,2.639,12.863,3.393,19.396c1.684,12.232,2.85,24.841,0.298,37.038c-1.473,6.892-5.138,14.371-12.32,16.704
		c-8.654,2.569-17.712,3.648-26.717,3.99c0.588-10.61,2.245-21.219,1.534-31.847c-1.71,1.254-2.148,3.393-2.727,5.322
		c-2.49,8.663-4.27,17.502-6.506,26.235c-12.442-0.658-24.981-4.402-34.951-12.057c0.57-8.207,1.885-16.52,0.666-24.718
		c-3.323,6.182-4.13,13.267-6.085,19.931c-9.698-9.698-15.011-22.929-17.467-36.231c-1.605-8.076-1.85-16.318-2.42-24.499
		c-0.018-2.525-0.114-5.051-0.342-7.55c0.053-14.845-0.184-30.005,4.226-44.342c1.087-3.516,2.481-6.945,4.296-10.154
		c0.368-0.667,0.754-1.315,1.157-1.938C75.216,1127.305,79.889,1122.842,85.361,1119.712z"/>
	<path fill="#A47744" stroke="#A47744" stroke-width="0.5" d="M152.237,1117.011c0.272-0.859,0.552-1.692,0.851-2.508
		c5.13-0.719,10.312-1.061,15.485-0.78c-0.316,4.937,0.053,9.943-1.026,14.818C162.698,1124.376,157.691,1120.352,152.237,1117.011z
		"/>
	<path fill="#B6864F" stroke="#B6864F" stroke-width="0.5" d="M768.794,1116.774c5.419,0.474,10.838,1.07,16.186,2.131
		c1.806,0.377,3.709,0.789,5.235,1.938c9.908,7.225,19.361,15.09,28.076,23.727c19.966,19.387,37.388,42.141,47.305,68.358
		c7.251,19.545,9.619,41.159,4.963,61.606c-7.69,34.241-21.947,66.596-38.204,97.557c-3.148,5.524-6.155,11.127-9.347,16.634
		c-5.848,10.119-12.03,20.053-18.414,29.856c-4.595,6.98-9.303,13.88-14.178,20.667c-2.666,3.656-5.261,7.383-8.146,10.873
		c-2.832-6.217-5.647-12.433-8.453-18.641c-12.39,13.986-24.385,28.331-36.853,42.246c-0.088-7.865-0.017-15.722-0.026-23.587
		c-11.074,6.918-21.974,14.205-31.934,22.666c-4.288,3.63-8.269,7.62-11.741,12.03c-2.446-2.657-5.051-5.147-7.611-7.672
		c-0.903-2.385-1.648-4.814-2.473-7.208c-0.403,1.298-0.833,2.552-1.21,3.884c-19.983-17.344-43.105-31.093-67.876-40.413
		c-3.402-9.128-4.174-18.957-4.025-28.629c25.025-9.908,48.735-24.043,67.499-43.517c21.833-22.052,36.696-51.33,39.879-82.344
		c3.963,8.505,7.62,17.151,11.618,25.648c3.534-7.304,4.884-15.468,7.058-23.245c9.794-41.659,14.012-84.404,16.686-127.036
		c5.428,8.953,9.417,18.721,14.933,27.62C769.268,1160.248,769.443,1138.494,768.794,1116.774z"/>
	<path fill="#B6864F" stroke="#B6864F" stroke-width="0.5" d="M54.049,1224.748c1.613-9.689,4.428-19.176,8.444-28.138
		c0.57,8.181,0.815,16.423,2.42,24.499c2.455,13.302,7.769,26.533,17.467,36.231c1.955-6.664,2.762-13.749,6.085-19.931
		c1.219,8.198-0.096,16.511-0.666,24.718c9.97,7.655,22.508,11.399,34.951,12.057c2.236-8.733,4.016-17.572,6.506-26.235
		c0.579-1.929,1.017-4.069,2.727-5.322c0.71,10.627-0.947,21.237-1.534,31.847c9.005-0.342,18.063-1.421,26.717-3.99
		c7.181-2.332,10.846-9.812,12.32-16.704c2.552-12.197,1.385-24.806-0.298-37.038c-0.754-6.532-2.736-12.863-3.393-19.396
		c3.034,7.979,7.216,15.625,13.047,21.921c3.35,3.621,7.62,6.41,12.372,7.795c2.823,19.378,5.84,38.774,10.733,57.766
		c1.859,6.646,3.218,13.521,6.173,19.79c3.972-8.488,7.742-17.072,11.539-25.639c0.956,5.822,1.64,11.706,3.157,17.432
		c3.35,14.073,9.461,27.287,16.721,39.738c-26.735-16.502-57.354-27.103-88.824-28.795c-11.206-0.658-22.535-0.21-33.574,1.85
		c0.263,0.114,0.798,0.333,1.061,0.438c1.85,0.807,3.762,1.499,5.726,2.008c27.936,9.856,53.338,26.147,74.917,46.35
		c29.742,27.918,53.285,62.133,70.445,99.056l-0.737-0.403c-7.111-11.162-17.432-20.211-29.506-25.656
		c-19.308-8.882-41.203-9.812-62.063-7.944c-13.942,1.535-27.918,3.937-41.194,8.549c5.033,2.359,10.303,4.174,15.318,6.576
		c-2.517,2.403-3.122,6.068-4.752,9.049c-3.016-3.56-5.638-7.409-8.383-11.162c-6.226-8.637-12.179-17.458-17.931-26.402
		c-11.697-18.229-22.57-36.994-32.276-56.354c-6.375-12.784-12.337-25.788-17.519-39.107c-4.472-11.373-8.374-22.973-11.697-34.732
		c-2.99-10.943-5.436-22.079-5.945-33.434C52.655,1238.918,52.804,1231.771,54.049,1224.748z"/>
	<path fill="#C4DB73" stroke="#C4DB73" stroke-width="0.5" d="M254.433,1215.225c7.821,3.955,14.582,9.663,21.509,14.976
		c39.475,32.925,68.832,76.635,89.288,123.502c9.444,21.921,17.116,44.605,23.043,67.736c3.209,12.153,5.752,24.473,8.111,36.818
		c1.42,8.435,3.13,16.853,3.648,25.42c-2.543-8.295-3.525-16.976-5.98-25.297c-15.599-60.87-41.536-119.206-77.407-170.86
		c-13.74-19.808-28.892-38.651-45.622-56.012c-2.455-2.569-4.796-5.287-7.76-7.278c2.999,4.796,7.357,8.532,10.645,13.126
		c28.787,36.345,45.359,81.16,52.268,126.712c3.104,20.255,4.349,40.799,3.63,61.282c-0.114,2.017-0.447,4.016-0.719,6.05
		c-1.859-9.505-3.455-19.071-5.691-28.497l-0.018-0.088c-5.787-29.602-13.223-58.888-21.921-87.771
		c-8.444-27.191-17.914-54.346-32.268-79.056C264.999,1228.562,259.58,1221.977,254.433,1215.225z"/>
	<path fill="#A8CE38" stroke="#A8CE38" stroke-width="0.5" d="M263.262,1224.231c2.964,1.99,5.305,4.709,7.76,7.278
		c16.73,17.361,31.882,36.205,45.622,56.012c35.871,51.654,61.808,109.99,77.407,170.86c2.455,8.321,3.437,17.002,5.98,25.297
		l0.219,0.903l0.07,0.386c0.289,1.157,0.596,2.35,0.903,3.542c6.138-34.539,16.011-68.507,30.435-100.529
		c11.232-24.692,25.341-48.331,43.78-68.349c6.497-6.971,13.398-13.617,21.053-19.308c1.342-0.982,2.394-2.297,3.446-3.569
		c3.13-2.192,6.454-4.095,9.917-5.699c-0.544,1.096-1.07,2.227-1.631,3.332c-3.49,2.481-5.393,6.41-7.892,9.768
		c-17.063,25.262-30.707,53.075-38.3,82.677c-4.866,19.378-6.892,39.642-4.446,59.537c1.035,7.024,1.885,14.222,4.63,20.834
		c0.061,0.263,0.175,0.789,0.237,1.052c0.342-0.605,0.693-1.193,1.061-1.754c4.682-3.814,8.19-8.83,12.556-12.977
		c31.829-32.671,68.972-60.546,110.385-79.889c7.892-3.955,16.353-6.603,24.262-10.496c0.78-0.21,1.578-0.412,2.376-0.588
		c-0.588,0.693-1.149,1.412-1.745,2.104c-5.577,2.823-10.215,7.076-15.169,10.82c-23.903,19.299-45.359,41.939-61.729,68.016
		c-15.485,24.788-25.972,53.277-26.673,82.712c-0.175,9.487,0.149,19.089,2.262,28.383c0.026,0.465,0.096,1.403,0.123,1.868
		c-17.659,0.088-35.319-0.167-52.978,0.14c-46.315-0.289-92.647-0.035-138.97-0.123c-15.801,0.053-31.61-0.114-47.402,0.079
		c-0.21-0.421-0.631-1.271-0.833-1.701c-0.351-6.646-3.113-12.819-5.147-19.062c-10.189-27.401-26.954-52.654-49.743-71.164
		c-11.145-9.075-23.622-16.528-36.95-21.921c-12.591-5.358-25.989-8.47-39.44-10.776c3.323-1.166,6.883-0.754,10.338-0.885
		c33.855-0.588,68.358,3.954,99.6,17.528c7.628,3.174,14.599,7.62,21.833,11.548c-0.64-1.193-1.254-2.332-1.92-3.464l0.737,0.403
		l0.798,0.43c-2.999-14.292-8.426-27.997-14.766-41.124c-13.801-27.971-34.021-52.882-59.187-71.383
		c-18.089-13.424-38.546-23.534-60.002-30.312c-4.016-1.228-7.962-2.841-12.206-3.016c-1.964-0.509-3.876-1.201-5.726-2.008
		c10.355-0.035,20.588,1.841,30.724,3.779c56.468,11.609,108.5,41.545,148.773,82.546c9.189,9.294,17.914,19.071,25.832,29.47
		c0.789,0.956,1.833,1.613,2.815,2.402c0.982,1.482,1.876,3.034,2.771,4.612c-0.009-0.263-0.018-0.789-0.026-1.052
		c0.272-2.034,0.605-4.033,0.719-6.05c0.719-20.483-0.526-41.027-3.63-61.282c-6.909-45.552-23.482-90.367-52.268-126.712
		C270.619,1232.762,266.261,1229.027,263.262,1224.231z"/>
	<path fill="#C4DB73" stroke="#C4DB73" stroke-width="0.5" d="M500.333,1304.154c2.499-3.358,4.402-7.286,7.892-9.768
		c-7.804,16.248-14.95,32.82-21.255,49.708c-9.864,27.12-18.028,55.004-22.061,83.624c-1.929,13.074-2.736,26.279-2.692,39.484
		c-2.745-6.611-3.595-13.81-4.63-20.834c-2.446-19.896-0.421-40.159,4.446-59.537
		C469.626,1357.229,483.27,1329.416,500.333,1304.154z"/>
	<path fill="#C4DB73" stroke="#C4DB73" stroke-width="0.5" d="M449.547,1339.64c14.284-16.923,31.329-31.601,50.392-42.886
		c-1.052,1.271-2.104,2.587-3.446,3.569c-7.655,5.691-14.556,12.337-21.053,19.308c-18.44,20.018-32.548,43.658-43.78,68.349
		c-14.424,32.022-24.297,65.991-30.435,100.529c-0.307-1.193-0.614-2.385-0.903-3.542l-0.07-0.386
		c0.535-8.172,0.447-16.37,1.131-24.525c1.21-12.065,2.99-24.087,5.954-35.854C414.876,1393.355,429.02,1363.963,449.547,1339.64z"
		/>
	<path fill="#C4DB73" stroke="#C4DB73" stroke-width="0.5" d="M117.138,1309.205c11.039-2.061,22.368-2.508,33.574-1.85
		c31.47,1.692,62.089,12.293,88.824,28.795c24.674,15.546,46.104,35.907,64.044,58.827c7.076,8.847,13.381,18.264,19.667,27.682
		c1.008,1.727,2.034,3.455,3.095,5.182c-0.982-0.789-2.025-1.447-2.815-2.402c-7.918-10.399-16.642-20.176-25.832-29.47
		c-40.273-41.001-92.305-70.936-148.773-82.546c-10.136-1.938-20.369-3.814-30.724-3.779
		C117.935,1309.538,117.401,1309.319,117.138,1309.205z"/>
	<path fill="#C4DB73" stroke="#C4DB73" stroke-width="0.5" d="M123.924,1311.651c4.244,0.175,8.19,1.789,12.206,3.016
		c21.456,6.778,41.913,16.888,60.002,30.312c25.165,18.501,45.385,43.412,59.187,71.383c6.34,13.126,11.767,26.831,14.766,41.124
		l-0.798-0.43c-17.16-36.924-40.703-71.138-70.445-99.056C177.262,1337.799,151.86,1321.507,123.924,1311.651z"/>
	<path fill="#D0985A" stroke="#D0985A" stroke-width="0.5" d="M398.892,1346.549c16.493-4.472,33.521-7.286,50.655-6.909
		c-20.527,24.323-34.67,53.715-42.211,84.562c-6.383-0.728-12.74-1.675-19.062-2.762c-5.927-23.131-13.6-45.815-23.043-67.736
		C376.725,1352.801,387.817,1349.548,398.892,1346.549z"/>
	<path fill="#C4DB73" stroke="#C4DB73" stroke-width="0.5" d="M492.678,1427.218c31.014-33.337,72.777-57.31,118.04-64.079
		c-7.909,3.893-16.37,6.541-24.262,10.496c-41.413,19.343-78.556,47.218-110.385,79.889c-4.367,4.148-7.874,9.163-12.556,12.977
		C471.432,1452.191,481.577,1439.187,492.678,1427.218z"/>
	<path fill="#C4DB73" stroke="#C4DB73" stroke-width="0.5" d="M596.18,1375.476c4.954-3.744,9.593-7.997,15.169-10.82
		c-16.353,16.765-32.075,34.258-45.613,53.408c-1.982,2.578-3.911,5.2-5.752,7.892c-3.955,5.892-7.918,11.776-11.565,17.87
		c-9.864,15.932-18.422,32.706-25.06,50.243c-5.585,14.643-9.672,29.891-11.758,45.438c-0.666,5.007-1,10.057-1.561,15.082
		c-2.113-9.294-2.438-18.896-2.262-28.383c0.701-29.435,11.188-57.924,26.673-82.712
		C550.821,1417.415,572.277,1394.775,596.18,1375.476z"/>
	<path fill="#B6864F" stroke="#B6864F" stroke-width="0.5" d="M303.579,1394.977c2.052-0.281,3.841,0.886,5.603,1.754
		c4.56,2.385,9.198,4.744,14.196,6.085l0.018,0.088c-0.035,5.998,0,12.013-1.017,17.958c0.219,0.447,0.649,1.35,0.868,1.797
		C316.96,1413.242,310.656,1403.824,303.579,1394.977z"/>
	<path opacity="0.15" fill="#002400" stroke="#002400" stroke-width="0.5" enable-background="new    " d="M322.379,1420.861
		c1.017-5.945,0.982-11.96,1.017-17.958c2.236,9.426,3.832,18.992,5.691,28.497c0.009,0.263,0.017,0.789,0.026,1.052
		c-0.894-1.578-1.789-3.13-2.771-4.612c-1.061-1.727-2.087-3.455-3.095-5.182C323.028,1422.212,322.598,1421.308,322.379,1420.861z"
		/>
	<path opacity="0.13" fill="#002000" stroke="#002000" stroke-width="0.5" enable-background="new    " d="M388.273,1421.44
		c6.322,1.087,12.679,2.034,19.062,2.762c-2.964,11.767-4.744,23.789-5.954,35.854c-0.359-0.316-1.07-0.938-1.429-1.254
		c-0.035,3.008-0.105,6.024-0.447,9.031c-1.105-3.472-1.394-7.111-1.815-10.689c-0.324,0.272-0.982,0.833-1.306,1.114
		C394.025,1445.913,391.482,1433.593,388.273,1421.44z"/>
	<path fill="#C4DB73" stroke="#C4DB73" stroke-width="0.5" d="M135.788,1431.603c13.275-4.612,27.252-7.015,41.194-8.549
		c20.86-1.868,42.755-0.938,62.063,7.944c12.074,5.445,22.394,14.494,29.506,25.656c0.666,1.131,1.28,2.271,1.92,3.464
		c-7.234-3.928-14.205-8.374-21.833-11.548c-31.242-13.573-65.745-18.115-99.6-17.528c-3.455,0.131-7.015-0.281-10.338,0.885
		c13.451,2.306,26.849,5.419,39.44,10.776c13.328,5.393,25.805,12.846,36.95,21.921c22.789,18.51,39.554,43.763,49.743,71.164
		c2.034,6.243,4.796,12.416,5.147,19.062c-0.237-0.412-0.71-1.245-0.947-1.666c-6.857-12.065-14.687-23.552-23.043-34.626
		c-15.353-20.106-32.96-38.572-52.865-54.224c-5.042-3.858-10.022-7.857-15.625-10.864c-8.093-6.199-17.344-10.689-26.393-15.292
		C146.091,1435.776,140.821,1433.961,135.788,1431.603z"/>
	<path fill="#BBBDBF" stroke="#BBBDBF" stroke-width="0.5" d="M559.984,1425.956c7.085-0.561,14.222-1.166,21.325-0.456
		c11.259,0.947,22.228,4.016,32.785,7.927c24.771,9.321,47.893,23.07,67.876,40.413c1.228,1.087,2.464,2.183,3.683,3.323
		c2.56,2.525,5.164,5.016,7.611,7.672c2.201,2.394,4.305,4.884,6.348,7.427c-1.508,4.595-1.982,9.531-4.244,13.871
		c-5.322,11.285-16.248,18.642-27.322,23.569c-15.239,6.682-31.768,9.689-48.173,11.802c-23.596,2.657-47.393,3.025-71.094,2.034
		c-12.442-0.745-24.937-1.605-37.178-4.033c2.087-15.546,6.173-30.795,11.758-45.438c15.09-0.307,30.032-3.981,43.859-9.97
		c9.216-4.2,18.378-9.215,25.297-16.774c2.946-3.2,5.384-7.129,5.919-11.513c0.281-4.428-2.727-8.427-6.568-10.329
		c-7.523-3.981-16.37-4.314-24.692-3.972c-6.331,0.167-12.477,1.789-18.756,2.315
		C552.066,1437.732,556.03,1431.848,559.984,1425.956z"/>
	<path fill="#404041" stroke="#404041" stroke-width="0.5" d="M736.965,1473.726c12.469-13.915,24.464-28.26,36.853-42.246
		c2.806,6.208,5.621,12.425,8.453,18.641c2.885-3.49,5.48-7.216,8.146-10.873c12.153,3.814,24.113,8.216,35.845,13.17
		c11.969,5.243,23.894,10.96,34.232,19.054c6.533,5.147,12.618,11.171,16.476,18.633c1.727,3.727,3.069,8.523,0.465,12.188
		c-2.736,3.718-7.734,4.244-11.978,4.498c5.445,3.209,10.697,7.374,13.328,13.31c0.929,3.051,1.315,6.585-0.403,9.461
		c-2.148,3.586-6.366,5.2-10.294,5.91c-8.137,1.342-16.651,0.175-24.201-3.113c-0.535,3.937-2.578,7.593-6.103,9.575
		c-6.085,2.438-12.811,1.552-18.984,0c-14.424-3.56-28.427-8.935-41.492-16.011c1.263,4.288,1.85,9.715-1.736,13.091
		c-4.621,4.244-11.469,3.902-17.291,3.446c-15.801-1.876-31.084-6.804-45.841-12.609c2.666-13.819-4.524-27.103-12.828-37.59
		c-2.043-2.543-4.147-5.033-6.348-7.427c3.472-4.411,7.453-8.4,11.741-12.03c9.961-8.462,20.86-15.748,31.934-22.666
		C736.948,1458.004,736.877,1465.861,736.965,1473.726z"/>
	<path fill="#404041" stroke="#404041" stroke-width="0.5" d="M137.971,1436.066c2.745,3.753,5.366,7.602,8.383,11.162
		c1.631-2.981,2.236-6.646,4.752-9.049c9.049,4.603,18.3,9.093,26.393,15.292c4.77,6.357,10.268,12.135,15.441,18.177
		c0.018-2.455,0.061-4.884,0.184-7.313c19.904,15.651,37.511,34.118,52.865,54.224c-24.455,9.435-48.717,20.79-75.031,23.876
		c-6.05,0.5-13.144,0.754-17.887-3.691c-3.525-3.516-2.902-8.961-1.71-13.337c-14.012,7.611-29.076,13.302-44.605,16.905
		c-6.199,1.289-13.354,2.236-18.966-1.385c-3.086-1.894-4.358-5.489-4.919-8.874c-7.795,3.393-16.546,4.437-24.937,3.209
		c-3.946-0.754-8.207-2.28-10.469-5.822c-1.955-3.078-1.605-6.971-0.5-10.277c2.736-6.024,8.102-10.233,13.67-13.495
		c-4.472-0.281-9.768-0.815-12.512-4.858c-2.867-4.419-0.71-9.943,1.57-14.108c5.936-9.917,15.143-17.388,24.762-23.543
		c13.661-8.4,28.532-14.599,43.491-20.264C124.582,1440.502,131.237,1438.17,137.971,1436.066z"/>
	<path fill="#D0D2D3" stroke="#D0D2D3" stroke-width="0.5" d="M548.419,1443.826c6.278-0.526,12.425-2.148,18.756-2.315
		c8.321-0.342,17.168-0.009,24.692,3.972c3.841,1.903,6.848,5.901,6.568,10.329c-0.535,4.384-2.973,8.312-5.919,11.513
		c-6.918,7.558-16.081,12.574-25.297,16.774c-13.828,5.989-28.769,9.663-43.859,9.97
		C529.996,1476.532,538.554,1459.758,548.419,1443.826z"/>
	<path fill="#B6864F" stroke="#B6864F" stroke-width="0.5" d="M177.499,1453.471c5.603,3.007,10.583,7.006,15.625,10.864
		c-0.123,2.429-0.167,4.858-0.184,7.313C187.767,1465.606,182.269,1459.828,177.499,1453.471z"/>
	<path fill="#404041" stroke="#404041" stroke-width="0.5" d="M681.97,1473.84c0.377-1.333,0.807-2.587,1.21-3.884
		c0.824,2.394,1.57,4.823,2.473,7.208C684.434,1476.023,683.197,1474.927,681.97,1473.84z"/>
	<path fill="#A6A8AB" stroke="#A6A8AB" stroke-width="0.5" d="M695.368,1506.134c2.262-4.34,2.736-9.277,4.244-13.871
		c8.304,10.487,15.494,23.771,12.828,37.59c-1.333,6.269-4.612,12.1-9.303,16.476c-6.559,6.19-15.003,9.864-23.455,12.644
		c-28.786,8.365-59.081,7.997-88.771,8.628c-24.639,0.088-49.287-0.079-73.874-1.657c-0.693-0.079-1.368-0.132-2.026-0.158
		c-1.947-2.92-4.384-5.734-4.849-9.33c-0.026-0.465-0.096-1.403-0.123-1.868c0.561-5.024,0.894-10.075,1.561-15.082
		c12.241,2.429,24.736,3.288,37.178,4.033c23.701,0.991,47.498,0.622,71.094-2.034c16.406-2.113,32.934-5.121,48.173-11.802
		C679.12,1524.775,690.045,1517.419,695.368,1506.134z"/>
	<path opacity="0.25" stroke="#000000" stroke-width="0.5" enable-background="new    " d="M212.941,1574.501
		c19.685-4.542,39.247-10.022,57.871-17.949c15.792-0.193,31.601-0.026,47.402-0.079c46.323,0.088,92.655-0.167,138.97,0.123
		c18.712,5.805,38.362,7.742,57.827,9.189c0.658,0.026,1.333,0.079,2.026,0.158c1.184,2.017,2.964,3.569,4.972,4.761
		c9.628,6.147,20.229,10.575,30.9,14.573c18.747,6.927,38.072,12.135,57.424,17.037c-3.656,0.702-7.365,0.175-11.031-0.079
		c-12.284-0.5-24.551-1.526-36.783-2.797c-34.083-3.683-68.297-9.452-100.459-21.667c-0.009,6.453,3.814,12.083,8.198,16.502
		c10.952,11.022,24.999,18.045,38.414,25.516c-17.475-1.885-34.81-5.173-51.865-9.373c-15.406-4.086-31.058-8.812-44.28-18.001
		c-6.182-4.226-11.583-10.426-12.179-18.203c-5.892,9.356-13.907,17.195-23.017,23.394c-13.933,9.601-29.576,16.344-45.42,22.087
		c-17.335,6.077-35.152,10.706-53.154,14.371c-7.05,1.193-14.029,3.279-21.219,3.306c16.3-4.823,31.514-13.021,44.745-23.648
		c9.847-7.97,19.159-16.818,26.559-27.129c-5.147,1.482-10.04,3.709-15.143,5.331c-20.141,6.839-40.913,11.714-61.861,15.362
		c-38.546,6.585-77.723,9.251-116.812,8.821c-3.691-0.114-7.488,0.386-11.057-0.78c35.775-3.428,71.567-8.786,105.966-19.466
		c13.065-4.183,26.217-8.558,38.291-15.134c-17.23,5.366-35.354,6.918-53.32,7.436c-18.808,1.07-37.651,0.298-56.468-0.245
		c-6.69-0.737-13.468-0.447-20.106-1.578C163.373,1583.629,188.389,1580.235,212.941,1574.501z"/>
	<path fill="#7E7E81" stroke="#7E7E81" stroke-width="0.5" d="M457.184,1556.596c17.66-0.307,35.319-0.052,52.978-0.14
		c0.465,3.595,2.902,6.41,4.849,9.33C495.545,1564.338,475.896,1562.4,457.184,1556.596z"/>
</g>
</svg>
