<?xml version="1.0" encoding="UTF-8" standalone="no"?>
<!-- Created with Inkscape (http://www.inkscape.org/) -->

<svg
   xmlns:dc="http://purl.org/dc/elements/1.1/"
   xmlns:cc="http://creativecommons.org/ns#"
   xmlns:rdf="http://www.w3.org/1999/02/22-rdf-syntax-ns#"
   xmlns:svg="http://www.w3.org/2000/svg"
   xmlns="http://www.w3.org/2000/svg"
   xmlns:xlink="http://www.w3.org/1999/xlink"
   xmlns:sodipodi="http://sodipodi.sourceforge.net/DTD/sodipodi-0.dtd"
   xmlns:inkscape="http://www.inkscape.org/namespaces/inkscape"
   width="389.02231"
   height="384.96243"
   id="svg2"
   sodipodi:version="0.32"
   inkscape:version="0.92.4 (5da689c313, 2019-01-14)"
   sodipodi:docname="lizard.svg"
   inkscape:output_extension="org.inkscape.output.svg.inkscape"
   version="1.1">
  <defs
     id="defs4">
    <inkscape:path-effect
       effect="bend_path"
       id="path-effect3847"
       bendpath="m 58.6947,364.289 160.98357,0 160.98358,0 160.98358,0 160.98357,0"
       prop_scale="1"
       bendpath-nodetypes="ccccc"
       is_visible="true"
       scale_y_rel="false"
       vertical="false" />
    <linearGradient
       inkscape:collect="always"
       id="linearGradient3356">
      <stop
         style="stop-color:#72ec6d;stop-opacity:1"
         offset="0"
         id="stop3358" />
      <stop
         style="stop-color:#309f2c;stop-opacity:0;"
         offset="1"
         id="stop3360" />
    </linearGradient>
    <linearGradient
       id="linearGradient3282">
      <stop
         style="stop-color:#57f472;stop-opacity:0.45132744;"
         offset="0"
         id="stop3284" />
      <stop
         id="stop3338"
         offset="0.5"
         style="stop-color:#65e56d;stop-opacity:0.46902654;" />
      <stop
         style="stop-color:#43a136;stop-opacity:0.91150445;"
         offset="1"
         id="stop3286" />
    </linearGradient>
    <linearGradient
       inkscape:collect="always"
       id="linearGradient3264">
      <stop
         style="stop-color:#49f868;stop-opacity:1;"
         offset="0"
         id="stop3266" />
      <stop
         style="stop-color:#49f868;stop-opacity:0;"
         offset="1"
         id="stop3268" />
    </linearGradient>
    <linearGradient
       inkscape:collect="always"
       id="linearGradient3210">
      <stop
         style="stop-color:#49f868;stop-opacity:1"
         offset="0"
         id="stop3212" />
      <stop
         style="stop-color:#7fef92;stop-opacity:0"
         offset="1"
         id="stop3214" />
    </linearGradient>
    <linearGradient
       inkscape:collect="always"
       id="linearGradient3200">
      <stop
         style="stop-color:#7fef92;stop-opacity:1"
         offset="0"
         id="stop3202" />
      <stop
         style="stop-color:#309f2c;stop-opacity:0;"
         offset="1"
         id="stop3204" />
    </linearGradient>
    <inkscape:perspective
       sodipodi:type="inkscape:persp3d"
       inkscape:vp_x="0 : 526.18109 : 1"
       inkscape:vp_y="0 : 1000 : 0"
       inkscape:vp_z="744.09448 : 526.18109 : 1"
       inkscape:persp3d-origin="372.04724 : 350.78739 : 1"
       id="perspective10" />
    <filter
       inkscape:collect="always"
       id="filter3194"
       color-interpolation-filters="sRGB">
      <feGaussianBlur
         inkscape:collect="always"
         stdDeviation="4.829471"
         id="feGaussianBlur3196" />
    </filter>
    <linearGradient
       inkscape:collect="always"
       xlink:href="#linearGradient3200"
       id="linearGradient3206"
       x1="295.64294"
       y1="410.77032"
       x2="353.23105"
       y2="346.88339"
       gradientUnits="userSpaceOnUse" />
    <linearGradient
       inkscape:collect="always"
       xlink:href="#linearGradient3210"
       id="linearGradient3216"
       x1="304.0882"
       y1="229.27773"
       x2="323.14279"
       y2="231.48372"
       gradientUnits="userSpaceOnUse"
       gradientTransform="translate(-2,2)" />
    <filter
       inkscape:collect="always"
       id="filter3258"
       x="-0.10279359"
       width="1.2055871"
       y="-0.027208479"
       height="1.054417"
       color-interpolation-filters="sRGB">
      <feGaussianBlur
         inkscape:collect="always"
         stdDeviation="1.0361659"
         id="feGaussianBlur3260" />
    </filter>
    <linearGradient
       inkscape:collect="always"
       xlink:href="#linearGradient3264"
       id="linearGradient3270"
       x1="322.5065"
       y1="493.51987"
       x2="342.78192"
       y2="492.56946"
       gradientUnits="userSpaceOnUse" />
    <linearGradient
       inkscape:collect="always"
       xlink:href="#linearGradient3282"
       id="linearGradient3288"
       x1="188.20203"
       y1="346.92035"
       x2="195.46486"
       y2="370.07724"
       gradientUnits="userSpaceOnUse" />
    <filter
       inkscape:collect="always"
       id="filter3334"
       color-interpolation-filters="sRGB">
      <feGaussianBlur
         inkscape:collect="always"
         stdDeviation="0.54461492"
         id="feGaussianBlur3336" />
    </filter>
    <linearGradient
       inkscape:collect="always"
       xlink:href="#linearGradient3356"
       id="linearGradient3348"
       x1="452.76822"
       y1="325.33978"
       x2="459.85446"
       y2="344.33704"
       gradientUnits="userSpaceOnUse" />
    <filter
       inkscape:collect="always"
       id="filter3520"
       color-interpolation-filters="sRGB">
      <feGaussianBlur
         inkscape:collect="always"
         stdDeviation="0.68641554"
         id="feGaussianBlur3522" />
    </filter>
    <filter
       inkscape:collect="always"
       id="filter3776"
       color-interpolation-filters="sRGB">
      <feGaussianBlur
         inkscape:collect="always"
         stdDeviation="0.62319934"
         id="feGaussianBlur3778" />
    </filter>
    <linearGradient
       inkscape:collect="always"
       xlink:href="#linearGradient3200"
       id="linearGradient3806"
       gradientUnits="userSpaceOnUse"
       x1="295.64294"
       y1="410.77032"
       x2="353.23105"
       y2="346.88339" />
    <linearGradient
       inkscape:collect="always"
       xlink:href="#linearGradient3210"
       id="linearGradient3808"
       gradientUnits="userSpaceOnUse"
       gradientTransform="translate(-2,2)"
       x1="304.0882"
       y1="229.27773"
       x2="323.14279"
       y2="231.48372" />
    <linearGradient
       inkscape:collect="always"
       xlink:href="#linearGradient3264"
       id="linearGradient3810"
       gradientUnits="userSpaceOnUse"
       x1="322.5065"
       y1="493.51987"
       x2="342.78192"
       y2="492.56946" />
    <linearGradient
       inkscape:collect="always"
       xlink:href="#linearGradient3282"
       id="linearGradient3812"
       gradientUnits="userSpaceOnUse"
       x1="188.20203"
       y1="346.92035"
       x2="195.46486"
       y2="370.07724" />
    <linearGradient
       inkscape:collect="always"
       xlink:href="#linearGradient3356"
       id="linearGradient3814"
       gradientUnits="userSpaceOnUse"
       x1="452.76822"
       y1="325.33978"
       x2="459.85446"
       y2="344.33704" />
    <linearGradient
       inkscape:collect="always"
       xlink:href="#linearGradient3200"
       id="linearGradient3835"
       gradientUnits="userSpaceOnUse"
       x1="295.64294"
       y1="410.77032"
       x2="353.23105"
       y2="346.88339" />
    <linearGradient
       inkscape:collect="always"
       xlink:href="#linearGradient3210"
       id="linearGradient3837"
       gradientUnits="userSpaceOnUse"
       gradientTransform="translate(-2,2)"
       x1="304.0882"
       y1="229.27773"
       x2="323.14279"
       y2="231.48372" />
    <linearGradient
       inkscape:collect="always"
       xlink:href="#linearGradient3264"
       id="linearGradient3839"
       gradientUnits="userSpaceOnUse"
       x1="322.5065"
       y1="493.51987"
       x2="342.78192"
       y2="492.56946" />
    <linearGradient
       inkscape:collect="always"
       xlink:href="#linearGradient3282"
       id="linearGradient3841"
       gradientUnits="userSpaceOnUse"
       x1="188.20203"
       y1="346.92035"
       x2="195.46486"
       y2="370.07724" />
    <linearGradient
       inkscape:collect="always"
       xlink:href="#linearGradient3356"
       id="linearGradient3843"
       gradientUnits="userSpaceOnUse"
       x1="452.76822"
       y1="325.33978"
       x2="459.85446"
       y2="344.33704" />
    <filter
       style="color-interpolation-filters:sRGB;"
       inkscape:label="Color Shift"
       id="filter1197">
      <feColorMatrix
         type="hueRotate"
         values="291"
         result="color1"
         id="feColorMatrix1193" />
      <feColorMatrix
         type="saturate"
         values="1"
         result="color2"
         id="feColorMatrix1195" />
    </filter>
  </defs>
  <sodipodi:namedview
     id="base"
     pagecolor="#ffffff"
     bordercolor="#666666"
     borderopacity="1.0"
     inkscape:pageopacity="0.0"
     inkscape:pageshadow="2"
     inkscape:zoom="0.44521849"
     inkscape:cx="189.07544"
     inkscape:cy="453.58771"
     inkscape:document-units="px"
     inkscape:current-layer="layer1"
     showgrid="false"
     inkscape:window-width="1920"
     inkscape:window-height="1017"
     inkscape:window-x="-8"
     inkscape:window-y="-8"
     fit-margin-top="0"
     fit-margin-left="0"
     fit-margin-right="0"
     fit-margin-bottom="0"
     inkscape:window-maximized="1" />
  <metadata
     id="metadata7">
    <rdf:RDF>
      <cc:Work
         rdf:about="">
        <dc:format>image/svg+xml</dc:format>
        <dc:type
           rdf:resource="http://purl.org/dc/dcmitype/StillImage" />
      </cc:Work>
    </rdf:RDF>
  </metadata>
  <g
     inkscape:label="Camada 1"
     inkscape:groupmode="layer"
     id="layer1"
     transform="translate(-69.858104,-369.16235)">
    <g
       id="g3851"
       transform="matrix(-0.04877851,0.60931775,-0.60931775,-0.04877851,509.07082,352.49162)"
       style="filter:url(#filter1197)">
      <g
         transform="translate(2.7329832,12.858613)"
         id="g3818">
        <g
           id="g3790"
           transform="translate(-10.931933,-2.7329832)">
          <path
             style="fill:#309f2c;fill-opacity:1;stroke:#111711;stroke-width:6.32000017;stroke-linecap:round;stroke-linejoin:round;stroke-miterlimit:4;stroke-opacity:1;stroke-dasharray:none;filter:url(#filter3194)"
             d="m 96.097729,80.382959 c -12.95356,0.11265 -23.02704,1.76013 -26.15625,4.3125 -10.488298,8.55486 -13.102172,34.983501 -2.34375,74.000001 5.9074,21.42379 4.76761,20.61073 22.15625,49.34375 19.414331,16.78271 25.424331,22.39748 42.687501,32.78125 l 54.875,26.5625 c 17.87183,14.12794 32.36493,42.25567 45.34375,63.625 -10.56477,8.49024 -2.95774,7.21512 -26.5625,19.96875 -7.08511,3.82808 -11.53358,5.66688 -20.03125,8.71875 -22.40661,6.42226 -23.99376,5.24883 -39.15625,2.9375 -0.78007,-11.87831 -0.74026,-20.31462 -2.34375,-35.625 -5.45247,-6.06651 -7.87794,-4.02824 -11.125,-4.8125 -2.54357,1.24373 -1.5876,0.77698 -5.15625,5.28125 -0.87593,6.074 -0.2636,19.77854 1.1875,29.5625 -9.17872,-4.57862 -14.82378,-7.48837 -27.5625,-13.71875 -4.601311,-0.38529 -10.820621,-0.10013 -14.156251,4.09375 l -0.3125,7.46875 c 3.28657,6.72554 23.474081,9.92834 38.281251,12.25 l -27.4375,7.4375 c -2.877161,2.5174 -3.822791,-0.64353 -6.531251,7.84375 2.75843,6.67856 0.23145,5.26111 8.343751,7.71875 9.77031,-2.50135 17.45432,-8.34242 26.1875,-12.5 -3.11425,9.92959 -8.62847,20.53837 -9.34375,29.8125 1.41858,4.41095 1.4219,6.56785 6.125,8.46875 2.58172,-1.64888 4.76989,-0.97332 7.75,-4.96875 13.2334,-32.80224 8.25102,-20.87246 12.375,-31.3125 l 26.71875,8.65625 c 15.34236,3.01894 39.52417,-3.93633 61.03125,-11.65625 21.053,-10.59401 18.18522,-8.87683 25.9375,-12.625 22.93569,25.90881 51.00879,47.3625 65.28125,61.5 5.78884,3.53043 11.05902,6.63292 15.96875,9.4375 -1.57288,5.9755 -1.18388,5.40263 -7.125,26.0625 -3.60504,22.56446 -5.99449,47.60672 -0.1875,62.125 l 13.46875,24.6875 c -9.49613,5.98539 1.28546,-1.13962 -28.5,17.9375 -3.37468,3.66825 -2.29507,5.68892 -3.4375,8.53125 2.73868,4.2699 4.87143,3.86001 9.46875,4.4375 8.98142,-2.41977 18.3498,-9.78888 27.53125,-14.6875 -2.46901,9.35188 -6.75682,17.99803 -7.40625,28.0625 3.91692,7.51712 2.05121,5.30687 9.125,6.78125 7.8392,-4.23285 4.55871,-4.61278 6.5,-7.90625 l 2.21875,-28.34375 c 5.02268,14.12144 11.90727,33.39029 19.125,35.375 l 7.28125,-1.6875 c 3.5039,-4.05436 2.63668,-10.23706 1.40625,-14.6875 -8.48093,-11.36515 -12.39507,-16.35879 -18.59375,-24.53125 9.88349,-0.38521 23.47439,-2.32728 29.28125,-4.3125 3.76577,-4.3408 3.49866,-3.33268 4.25,-6.0625 -1.37182,-3.04576 0.18979,-5.76483 -6.78125,-10 -15.34259,1.25851 -23.65134,2.84889 -35.46875,4.28125 -5.07831,-14.47254 -6.50702,-15.82304 -4.34375,-39.03125 1.426,-8.91576 2.39345,-13.64117 4.84375,-21.3125 7.53064,-23.57673 8.23373,-18.8121 13.3125,-27.3125 14.528,6.59347 29.42991,12.59367 51.71875,22.78125 68.14009,20.63697 278.82868,165.03718 278.8125,164.0625 -0.009,-0.53544 -208.47664,-193.72832 -235.5,-226.125 -16.195,-19.41521 -24.34602,-30.59637 -30.5,-39.25 8.27552,-6.76955 2.81114,-6.49883 25.34375,-17.90625 7.18488,-3.63741 11.67383,-5.3325 20.25,-8.15625 22.57016,-5.82134 24.15467,-4.62184 39.25,-1.90625 0.46244,11.8949 0.18111,20.33975 1.375,35.6875 5.28846,6.21 7.74379,4.22301 10.96875,5.09375 2.57591,-1.17532 1.62479,-0.74892 5.3125,-5.15625 1.03787,-6.04841 0.81419,-19.74327 -0.375,-29.5625 9.05311,4.82221 14.58853,7.90026 27.15625,14.46875 4.58936,0.50807 10.83477,0.35327 14.28125,-3.75 l 0.5,-7.4375 c -3.10572,-6.81097 -23.19764,-10.56483 -37.9375,-13.28125 l 27.625,-6.6875 c 2.94337,-2.43966 3.81575,0.75566 6.75,-7.65625 -2.57898,-6.74988 -0.1125,-5.264 -8.15625,-7.9375 -9.83363,2.23944 -17.69012,7.82722 -26.53125,11.75 3.37839,-9.84285 9.19345,-20.27954 10.15625,-29.53125 -1.30021,-4.44728 -1.22437,-6.59913 -5.875,-8.625 -2.62489,1.57932 -4.78922,0.83563 -7.875,4.75 -14.10507,32.43699 -8.81732,20.64263 -13.21875,30.96875 l -26.5,-9.34375 c -15.25621,-3.42773 -39.60685,2.88869 -61.3125,10.03125 -21.90913,10.30077 -18.0771,8.21171 -26.78125,12.15625 -14.68974,-15.52841 -45.41341,-41.23614 -75.71875,-61.6875 1.84738,-6.17016 1.36944,-5.35527 8.0625,-26.0625 4.33883,-22.43493 7.51801,-47.39384 2.1875,-62.09375 l -12.625,-25.09375 c 9.68624,-5.67259 -1.36037,1.09582 29.03125,-17 3.49249,-3.55626 2.48423,-5.63391 3.71875,-8.4375 -2.59801,-4.35693 -4.73644,-3.99166 -9.3125,-4.71875 -9.05554,2.12565 -18.66373,9.1846 -28,13.78125 2.77261,-9.26641 7.33527,-17.77455 8.3125,-27.8125 -3.66975,-7.64084 -1.88431,-5.35824 -8.90625,-7.0625 -7.97304,3.975 -4.67111,4.42785 -6.71875,7.65625 l -3.15625,28.25 c -4.55957,-14.27769 -10.81956,-33.71852 -17.96875,-35.9375 l -7.34375,1.4375 c -3.63422,3.93796 -2.95968,10.1368 -1.875,14.625 8.10585,11.63563 11.85234,16.75478 17.78125,25.125 -9.89079,0.0628 -23.50649,1.58016 -29.375,3.375 -3.90531,4.21571 -3.62879,3.20236 -4.46875,5.90625 1.27178,3.08887 -0.36048,5.75854 6.46875,10.21875 15.37546,-0.7576 23.70469,-2.07872 35.5625,-3.125 4.60373,14.63042 6.01256,16.03092 3.09375,39.15625 -1.71595,8.86453 -2.83213,13.53765 -5.53125,21.125 -8.44739,23.74604 -8.89634,18.38751 -14.53125,27.375 -26.63953,-10.96334 -54.24945,-17.01784 -54.5625,-17.28125 -0.42437,-0.35705 -13.70806,-16.87408 -25.9375,-54.5 -10.74649,-33.06337 -7.65462,-28.83292 -19.09375,-53 -6.5193,-13.77311 -14.83496,-32.84915 -43.59375,-45.562501 -18.44242,-8.15281 -43.50537,-11.22714 -62.437501,-11.0625 z"
             id="path3172"
             inkscape:connector-curvature="0" />
          <path
             inkscape:original-d="m 94.0977,84.3834 c -12.9535,0.1127 -23.027,1.7601 -26.1562,4.3125 -10.4883,8.5549 -13.1022,34.9831 -2.3438,74.0001 5.9074,21.424 4.7676,20.611 22.1563,49.344 19.414,16.782 25.424,22.397 42.687,32.781 l 54.875,26.562 c 17.872,14.128 32.365,42.256 45.344,63.625 -10.565,8.491 -2.958,7.216 -26.562,19.969 -7.085,3.828 -11.534,5.667 -20.032,8.719 -22.406,6.422 -23.993,5.249 -39.156,2.937 -0.78,-11.878 -0.74,-20.314 -2.344,-35.625 -5.452,-6.066 -7.877,-4.028 -11.125,-4.812 -2.543,1.244 -1.587,0.777 -5.156,5.281 -0.876,6.074 -0.263,19.779 1.188,29.563 -9.179,-4.579 -14.824,-7.489 -27.5628,-13.719 -4.6013,-0.385 -10.8206,-0.1 -14.1562,4.094 l -0.3125,7.468 c 3.2865,6.726 23.4745,9.929 38.2815,12.25 l -27.4378,7.438 c -2.8771,2.517 -3.8228,-0.644 -6.5312,7.844 2.7584,6.678 0.2314,5.261 8.3437,7.718 9.7703,-2.501 17.4543,-8.342 26.1873,-12.5 -3.114,9.93 -8.628,20.539 -9.344,29.813 1.419,4.411 1.422,6.568 6.125,8.469 2.582,-1.649 4.77,-0.974 7.75,-4.969 13.234,-32.802 8.252,-20.873 12.375,-31.313 l 26.719,8.657 c 15.343,3.019 39.524,-3.937 61.031,-11.657 21.053,-10.594 18.186,-8.876 25.938,-12.625 22.936,25.909 51.009,47.363 65.281,61.5 5.789,3.531 11.059,6.633 15.969,9.438 -1.573,5.975 -1.184,5.403 -7.125,26.062 -3.605,22.565 -5.995,47.607 -0.188,62.125 l 13.469,24.688 c -9.496,5.985 1.286,-1.14 -28.5,17.937 -3.374,3.669 -2.295,5.689 -3.437,8.532 2.738,4.27 4.871,3.86 9.468,4.437 8.982,-2.42 18.35,-9.789 27.532,-14.687 -2.469,9.352 -6.757,17.998 -7.407,28.062 3.917,7.517 2.052,5.307 9.125,6.781 7.84,-4.232 4.559,-4.612 6.5,-7.906 l 2.219,-28.344 c 5.023,14.122 11.908,33.391 19.125,35.375 l 7.281,-1.687 c 3.504,-4.054 2.637,-10.237 1.407,-14.688 -8.481,-11.365 -12.395,-16.358 -18.594,-24.531 9.883,-0.385 23.474,-2.327 29.281,-4.312 3.766,-4.341 3.499,-3.333 4.25,-6.063 -1.372,-3.046 0.19,-5.765 -6.781,-10 -15.343,1.259 -23.651,2.849 -35.469,4.281 -5.078,-14.472 -6.507,-15.823 -4.344,-39.031 1.426,-8.916 2.394,-13.641 4.844,-21.312 7.531,-23.577 8.234,-18.812 13.313,-27.313 14.528,6.594 29.43,12.594 51.718,22.781 68.141,20.637 278.829,165.038 278.813,164.063 -0.009,-0.536 -208.477,-193.728 -235.5,-226.125 -16.195,-19.415 -24.346,-30.596 -30.5,-39.25 8.276,-6.77 2.811,-6.499 25.344,-17.906 7.185,-3.638 11.674,-5.333 20.25,-8.157 22.57,-5.821 24.154,-4.621 39.25,-1.906 0.462,11.895 0.181,20.34 1.375,35.688 5.288,6.21 7.744,4.223 10.968,5.093 2.576,-1.175 1.625,-0.749 5.313,-5.156 1.038,-6.048 0.814,-19.743 -0.375,-29.562 9.053,4.822 14.589,7.9 27.156,14.468 4.59,0.508 10.835,0.354 14.281,-3.75 l 0.5,-7.437 c -3.105,-6.811 -23.197,-10.565 -37.937,-13.281 l 27.625,-6.688 c 2.943,-2.439 3.816,0.756 6.75,-7.656 -2.579,-6.75 -0.113,-5.264 -8.156,-7.938 -9.834,2.24 -17.69,7.828 -26.532,11.75 3.379,-9.842 9.194,-20.279 10.157,-29.531 -1.3,-4.447 -1.225,-6.599 -5.875,-8.625 -2.625,1.579 -4.789,0.836 -7.875,4.75 -14.105,32.437 -8.818,20.643 -13.219,30.969 l -26.5,-9.344 c -15.256,-3.428 -39.607,2.889 -61.313,10.031 -21.909,10.301 -18.077,8.212 -26.781,12.157 -14.69,-15.529 -45.413,-41.236 -75.719,-61.688 1.848,-6.17 1.37,-5.355 8.063,-26.062 4.339,-22.435 7.518,-47.394 2.187,-62.094 l -12.625,-25.094 c 9.687,-5.672 -1.36,1.096 29.032,-17 3.492,-3.556 2.484,-5.634 3.718,-8.437 -2.598,-4.357 -4.736,-3.992 -9.312,-4.719 -9.056,2.126 -18.664,9.185 -28,13.781 2.773,-9.266 7.335,-17.774 8.312,-27.812 -3.669,-7.641 -1.884,-5.359 -8.906,-7.063 -7.973,3.975 -4.671,4.428 -6.719,7.656 l -3.156,28.25 c -4.559,-14.277 -10.819,-33.718 -17.969,-35.937 l -7.343,1.437 c -3.634,3.938 -2.96,10.137 -1.875,14.625 8.106,11.636 11.852,16.755 17.781,25.125 -9.891,0.063 -23.507,1.581 -29.375,3.375 -3.905,4.216 -3.629,3.203 -4.469,5.907 1.272,3.089 -0.36,5.758 6.469,10.218 15.375,-0.757 23.705,-2.078 35.562,-3.125 4.604,14.631 6.013,16.031 3.094,39.157 -1.716,8.864 -2.832,13.537 -5.531,21.125 -8.447,23.746 -8.896,18.387 -14.531,27.375 -26.64,-10.964 -54.25,-17.018 -54.563,-17.282 -0.424,-0.357 -13.708,-16.874 -25.937,-54.5 -10.747,-33.063 -7.655,-28.833 -19.094,-53 C 193.61,127.235 185.294,108.159 156.535,95.4459 138.093,87.2931 113.03,84.2188 94.0977,84.3834 z"
             inkscape:path-effect="#path-effect3847"
             id="path2391"
             d="m 93.997698,84.383365 c -12.9535,0.1127 -23.027,1.7601 -26.1562,4.3125 -10.4883,8.5549 -13.1022,34.983095 -2.3438,74.000095 5.9074,21.424 4.7676,20.611 22.1563,49.344 19.414002,16.782 25.424002,22.397 42.687002,32.781 l 54.875,26.562 c 13.04617,10.31313 24.29177,28.08642 34.46227,45.24497 3.76211,6.34703 7.37711,12.60994 10.88173,18.38003 -6.75281,5.42718 -6.08171,6.8646 -10.88173,10.52541 -2.70978,2.06665 -7.16319,4.8419 -15.68027,9.44359 -7.085,3.828 -11.534,5.667 -20.032,8.719 -22.406,6.422 -23.993,5.249 -39.156,2.937 -0.78,-11.878 -0.74,-20.314 -2.344,-35.625 -5.452,-6.066 -7.877,-4.028 -11.125,-4.812 -2.543,1.244 -1.587,0.777 -5.156,5.281 -0.876,6.074 -0.263,19.779 1.188,29.563 -9.179,-4.579 -14.824,-7.489 -27.562802,-13.719 -4.6013,-0.385 -10.8206,-0.1 -14.1562,4.094 l -0.3125,7.468 c 3.2865,6.726 23.474502,9.929 38.281502,12.25 l -27.437802,7.438 c -2.8771,2.517 -3.8228,-0.644 -6.5312,7.844 2.7584,6.678 0.2314,5.261 8.3437,7.718 9.770302,-2.501 17.454302,-8.342 26.187302,-12.5 -3.114,9.93 -8.628,20.539 -9.344,29.813 1.419,4.411 1.422,6.568 6.125,8.469 2.582,-1.649 4.77,-0.974 7.75,-4.969 13.234,-32.802 8.252,-20.873 12.375,-31.313 l 26.719,8.657 c 13.19402,2.59616 32.92366,-2.18413 51.86827,-8.48341 3.08561,-1.026 6.1504,-2.0923 9.16273,-3.17359 21.053,-10.594 18.186,-8.876 25.938,-12.625 22.936,25.909 51.009,47.363 65.281,61.5 5.789,3.531 11.059,6.633 15.969,9.438 -1.573,5.975 -1.184,5.403 -7.125,26.062 -3.605,22.565 -5.995,47.607 -0.188,62.125 l 13.469,24.688 c -9.496,5.985 1.286,-1.14 -28.5,17.937 -3.374,3.669 -2.295,5.689 -3.437,8.532 2.738,4.27 4.871,3.86 9.468,4.437 8.982,-2.42 18.35,-9.789 27.532,-14.687 -2.469,9.352 -6.757,17.998 -7.407,28.062 3.917,7.517 2.052,5.307 9.125,6.781 7.84,-4.232 4.559,-4.612 6.5,-7.906 l 2.219,-28.344 c 5.023,14.122 11.908,33.391 19.125,35.375 l 3.85185,-0.89247 3.42915,-0.79453 c 3.504,-4.054 2.637,-10.237 1.407,-14.688 -1.79497,-2.40535 -3.38537,-4.52528 -4.83615,-6.45034 -5.40397,-7.1706 -8.87085,-11.63744 -13.75785,-18.08066 4.20928,-0.16397 9.09118,-0.61039 13.75785,-1.22227 6.29024,-0.82476 12.18941,-1.95016 15.52315,-3.08973 3.766,-4.341 3.499,-3.333 4.25,-6.063 -1.372,-3.046 0.19,-5.765 -6.781,-10 -4.94346,0.40565 -9.15661,0.84566 -12.99215,1.30367 -8.06884,0.96352 -14.46656,2.00672 -22.47685,2.97733 -5.078,-14.472 -6.507,-15.823 -4.344,-39.031 1.426,-8.916 2.394,-13.641 4.844,-21.312 7.531,-23.577 8.234,-18.812 13.313,-27.313 2.85574,1.29618 5.72594,2.5694 8.66385,3.85598 12.00806,5.25863 25.14727,10.74047 43.05415,18.92502 25.5098,7.72583 70.99775,32.79735 117.92943,61.09328 78.43077,47.28728 160.89358,103.57972 160.88357,102.96972 -0.006,-0.35468 -91.2943,-85.07177 -160.88357,-151.73267 -35.57279,-34.07586 -65.47546,-63.43351 -74.61643,-74.39233 -16.195,-19.415 -24.346,-30.596 -30.5,-39.25 8.276,-6.77 2.811,-6.499 25.344,-17.906 7.185,-3.638 11.674,-5.333 20.25,-8.157 22.57,-5.821 24.154,-4.621 39.25,-1.906 0.462,11.895 0.181,20.34 1.375,35.688 5.288,6.21 7.744,4.223 10.968,5.093 2.576,-1.175 1.625,-0.749 5.313,-5.156 1.038,-6.048 0.814,-19.743 -0.375,-29.562 1.03809,0.55293 2.02993,1.08293 2.99143,1.59788 7.42362,3.97591 13.0386,7.05526 24.16457,12.87012 4.59,0.508 10.835,0.354 14.281,-3.75 l 0.5,-7.437 c -3.105,-6.811 -23.197,-10.565 -37.937,-13.281 l 27.625,-6.688 c 2.943,-2.439 3.816,0.756 6.75,-7.656 -2.579,-6.75 -0.113,-5.264 -8.156,-7.938 -9.834,2.24 -17.69,7.828 -26.532,11.75 3.379,-9.842 9.194,-20.279 10.157,-29.531 -1.3,-4.447 -1.225,-6.599 -5.875,-8.625 -1.72745,1.03911 -3.25526,1.07263 -4.97757,2.08953 -0.89487,0.52836 -1.84226,1.32219 -2.89743,2.66047 -14.105,32.437 -8.818,20.643 -13.219,30.969 l -26.5,-9.344 c -15.256,-3.428 -39.607,2.889 -61.313,10.031 -21.909,10.301 -18.077,8.212 -26.781,12.157 -7.02451,-7.4257 -17.71511,-17.1787 -30.27315,-27.57153 -13.70394,-11.34117 -29.63167,-23.44427 -45.44585,-34.11647 1.848,-6.17 1.37,-5.355 8.063,-26.062 4.339,-22.435 7.518,-47.394 2.187,-62.094 l -12.625,-25.094 c 9.687,-5.672 -1.36,1.096 29.032,-17 3.492,-3.556 2.484,-5.634 3.718,-8.437 -2.598,-4.357 -4.736,-3.992 -9.312,-4.719 -9.056,2.126 -18.664,9.185 -28,13.781 2.773,-9.266 7.335,-17.774 8.312,-27.812 -3.669,-7.641 -1.884,-5.359 -8.906,-7.063 -7.973,3.975 -4.671,4.428 -6.719,7.656 l -3.156,28.25 c -4.559,-14.277 -10.819,-33.718 -17.969,-35.937 l -7.343,1.437 c -3.634,3.938 -2.96,10.137 -1.875,14.625 8.106,11.636 11.852,16.755 17.781,25.125 -9.891,0.063 -23.507,1.581 -29.375,3.375 -3.905,4.216 -3.629,3.203 -4.469,5.907 1.272,3.089 -0.36,5.758 6.469,10.218 15.375,-0.757 23.705,-2.078 35.562,-3.125 4.604,14.631 6.013,16.031 3.094,39.157 -1.716,8.864 -2.832,13.537 -5.531,21.125 -8.447,23.746 -8.896,18.387 -14.531,27.375 -26.64,-10.964 -54.25,-17.018 -54.563,-17.282 -0.41759,-0.3516 -13.30931,-16.37831 -25.38173,-52.80808 -0.1853,-0.55916 -0.37041,-1.12312 -0.55527,-1.69192 -10.747,-33.063 -7.655,-28.833 -19.094,-53 -6.519,-13.773 -14.835,-32.849 -43.594,-45.562095 -18.442,-8.1528 -43.505,-11.2271 -62.437302,-11.0625 z"
             style="fill:#309f2c;fill-opacity:1;stroke:#449e44;stroke-width:4.21963787;stroke-linecap:round;stroke-linejoin:round;stroke-miterlimit:4;stroke-opacity:1;stroke-dasharray:none"
             inkscape:connector-curvature="0" />
          <path
             sodipodi:nodetypes="ccccccccccccccc"
             id="path3198"
             d="m 63.687556,92.149805 c -2.821358,28.050025 -7.302292,25.291315 6.532057,81.650715 13.830787,23.47298 7.624992,25.25984 48.990427,60.42152 l 72.01873,40.92503 c 37.9091,49.11519 23.62416,38.56317 52.98991,76.05144 11.70967,16.25347 2.84248,20.12974 84.71741,82.38417 100.71675,56.09667 86.11616,40.53657 127.50801,59.55518 79.80822,40.19723 98.82419,57.57717 140.73822,82.61672 L 701.56234,644.27473 566.65594,536.32968 457.24399,459.57801 326.43674,378.92653 C 289.64408,352.60919 295.8326,365.43875 223.55684,287.47773 L 145.10571,208.12704 C 90.855583,149.1349 90.826942,130.80888 63.687556,92.149805 z"
             style="fill:url(#linearGradient3835);fill-opacity:1;fill-rule:evenodd;stroke:none"
             inkscape:connector-curvature="0" />
          <path
             transform="matrix(0.9995714,0.02927599,-0.02927599,0.9995714,6.7617313,-9.1010283)"
             sodipodi:nodetypes="cccccccc"
             id="path3208"
             d="m 302.08821,265.39908 c 12.16516,3.52464 10.00411,4.44451 14.99613,6.66494 3.05477,-12.21907 4.4224,-5.87971 9.1643,-36.65721 0.21971,-27.37903 -0.6206,-29.12654 -5.09779,-42.83193 l -5.53718,-11.90877 c 7.09781,22.85319 4.1269,22.87271 3.97002,33.91275 -6.21964,30.89971 -1.94264,9.55152 -9.1643,37.49032 -6.86529,13.43741 -5.55412,8.8866 -8.33118,13.3299 z"
             style="fill:url(#linearGradient3837);fill-opacity:1;fill-rule:evenodd;stroke:none;filter:url(#filter3258)"
             inkscape:connector-curvature="0" />
          <path
             sodipodi:nodetypes="ccccccccccccc"
             id="path3262"
             d="m 334.54506,439.98 c -1.63995,5.56832 -0.65135,4.05212 -6.30932,24.7241 -1.11207,7.12872 -1.43985,6.68246 -2.5612,25.64774 -0.68549,14.13146 -1.07613,12.87574 0.50868,27.58872 2.18504,9.12542 2.75917,11.05749 9.04899,22.08258 3.48187,6.20039 3.32272,6.02857 5.74262,9.41934 2.31345,-3.09173 5.70802,-4.8861 10.04403,-5.55076 -5.95414,-7.26626 -10.34719,-13.79598 -13.91261,-22.2566 -2.99189,-6.41753 -2.93197,-9.47395 -3.82841,-12.59184 -0.50035,-29.94976 2.91619,-39.58018 4.75206,-46.25339 1.58402,-4.50502 3.16804,-7.38263 4.75206,-10.77134 6.07128,-3.88831 8.58641,-1.84973 12.35536,-1.90082 -6.77146,-2.9161 -13.43864,-5.31083 -20.59226,-10.13773 z"
             style="fill:url(#linearGradient3839);fill-opacity:1;fill-rule:evenodd;stroke:none"
             inkscape:connector-curvature="0" />
          <path
             sodipodi:nodetypes="ccccccccccc"
             id="path3272"
             d="m 147.99332,367.76152 c 8.82168,1.01238 17.35617,0.51343 26.73563,-1.26309 9.90487,-2.27532 18.44222,-5.23438 26.10408,-8.6312 6.59619,-3.0436 13.19239,-6.32261 19.78858,-11.57842 4.07423,-3.36933 7.01299,-6.45479 8.84171,-9.26274 l 11.78894,15.57825 c -7.30509,5.45051 -15.92343,9.91608 -25.47254,13.68359 -8.77153,3.76732 -17.9641,5.84321 -26.73563,7.36808 -6.10042,0.49212 -11.64488,1.9375 -20.42013,1.89466 -7.52838,0.47126 -14.59418,0.56302 -23.15685,0 1.8139,-2.35342 2.94964,-4.87638 2.52621,-7.78913 z"
             style="fill:url(#linearGradient3841);fill-opacity:1;fill-rule:evenodd;stroke:none;filter:url(#filter3334)"
             inkscape:connector-curvature="0" />
          <path
             sodipodi:nodetypes="cccsccccccccc"
             id="path3340"
             d="m 412.81363,345.39246 c 5.17335,-2.74491 10.0665,-5.19094 18.09263,-8.29245 4.5789,-2.56906 16.50824,-6.92748 23.82197,-8.59401 9.19935,-2.79942 23.17542,-4.69334 24.7266,-4.97547 3.34407,-0.60822 12.96639,-1.17335 20.20344,0.75387 7.38274,1.58342 16.64758,5.36577 23.97275,8.29245 -1.15805,2.6647 -2.51073,5.42672 -2.86467,7.68937 -7.73963,-3.62557 -14.87617,-5.29202 -22.6158,-5.72934 -7.04064,-0.67578 -23.84072,0.58975 -21.86194,0.75386 -8.12147,1.18286 -15.31873,2.59287 -22.46501,4.67393 -6.6513,1.95831 -13.58434,4.72989 -19.75113,7.68938 -7.91844,3.56112 -8.96557,7.50399 -9.80018,11.45866 -2.82278,-4.29141 -7.45826,-9.03629 -11.45866,-13.72025 z"
             style="fill:url(#linearGradient3843);fill-opacity:1;fill-rule:evenodd;stroke:none"
             inkscape:connector-curvature="0" />
          <ellipse
             transform="matrix(0.9375289,0,0,1.0017086,9.102028,-0.2369506)"
             id="path3362"
             style="fill:#ff9955;fill-rule:evenodd;stroke:#000000;stroke-width:1px;stroke-linecap:butt;stroke-linejoin:miter;stroke-opacity:1"
             d="m 166.45225,138.68411 c 0,4.99615 -4.5902,9.04632 -10.2525,9.04632 -5.66229,0 -10.25249,-4.05017 -10.25249,-9.04632 0,-4.99614 4.5902,-9.04631 10.25249,-9.04631 5.6623,0 10.2525,4.05017 10.2525,9.04631 z"
             sodipodi:type="arc"
             sodipodi:ry="9.0463171"
             sodipodi:rx="10.252493"
             sodipodi:cy="138.68411"
             sodipodi:cx="156.19975" />
          <ellipse
             transform="matrix(1.061706,0,0,0.9560794,-8.9930101,11.222436)"
             id="path3364"
             style="fill:#ff9955;fill-rule:evenodd;stroke:#000000;stroke-width:1.99303353;stroke-linecap:butt;stroke-linejoin:miter;stroke-miterlimit:6;stroke-opacity:1;stroke-dasharray:none;filter:url(#filter3776)"
             d="m 98.906403,174.86938 c 0,4.99615 -3.780163,9.04632 -8.44323,9.04632 -4.663067,0 -8.44323,-4.05017 -8.44323,-9.04632 0,-4.99614 3.780163,-9.04631 8.44323,-9.04631 4.663067,0 8.44323,4.05017 8.44323,9.04631 z"
             sodipodi:type="arc"
             sodipodi:ry="9.0463171"
             sodipodi:rx="8.4432297"
             sodipodi:cy="174.86938"
             sodipodi:cx="90.463173" />
          <ellipse
             style="fill:#ff9955;fill-rule:evenodd;stroke:#000000;stroke-width:2.072052;stroke-linecap:butt;stroke-linejoin:miter;stroke-miterlimit:6;stroke-opacity:1;stroke-dasharray:none;filter:url(#filter3520)"
             id="path3438"
             transform="matrix(0.9375289,0,0,1.0017086,9.102028,-0.2369506)"
             d="m 166.45225,138.68411 c 0,4.99615 -4.5902,9.04632 -10.2525,9.04632 -5.66229,0 -10.25249,-4.05017 -10.25249,-9.04632 0,-4.99614 4.5902,-9.04631 10.25249,-9.04631 5.6623,0 10.2525,4.05017 10.2525,9.04631 z"
             sodipodi:type="arc"
             sodipodi:ry="9.0463171"
             sodipodi:rx="10.252493"
             sodipodi:cy="138.68411"
             sodipodi:cx="156.19975" />
          <ellipse
             transform="matrix(1.2783783,0,0,1.2676714,-43.289588,-38.811655)"
             id="path3780"
             style="fill:#241c1c;fill-rule:evenodd;stroke:#000000;stroke-width:1px;stroke-linecap:butt;stroke-linejoin:miter;stroke-opacity:1"
             d="m 156.901,138.50574 c 0,1.88378 -1.46838,3.41089 -3.27971,3.41089 -1.81133,0 -3.2797,-1.52711 -3.2797,-3.41089 0,-1.88379 1.46837,-3.41089 3.2797,-3.41089 1.81133,0 3.27971,1.5271 3.27971,3.41089 z"
             sodipodi:type="arc"
             sodipodi:ry="3.4108911"
             sodipodi:rx="3.2797029"
             sodipodi:cy="138.50574"
             sodipodi:cx="153.62129" />
          <ellipse
             transform="matrix(1.2279624,0,0,1.4651765,-20.124719,-85.426859)"
             id="path3782"
             style="fill:#241c1c;fill-rule:evenodd;stroke:#000000;stroke-width:1px;stroke-linecap:butt;stroke-linejoin:miter;stroke-opacity:1"
             d="m 88.683168,178.78049 c 0,1.66642 -1.468373,3.01732 -3.279703,3.01732 -1.81133,0 -3.279703,-1.3509 -3.279703,-3.01732 0,-1.66643 1.468373,-3.01733 3.279703,-3.01733 1.81133,0 3.279703,1.3509 3.279703,3.01733 z"
             sodipodi:type="arc"
             sodipodi:ry="3.0173268"
             sodipodi:rx="3.2797029"
             sodipodi:cy="178.78049"
             sodipodi:cx="85.403465" />
          <ellipse
             id="path3786"
             style="fill:#483737;fill-rule:evenodd;stroke:#000000;stroke-width:1px;stroke-linecap:butt;stroke-linejoin:miter;stroke-opacity:1"
             d="m 67.299711,109.99541 c 0,0.66035 -0.611799,1.19568 -1.366491,1.19568 -0.754693,0 -1.366492,-0.53533 -1.366492,-1.19568 0,-0.66036 0.611799,-1.19568 1.366492,-1.19568 0.754692,0 1.366491,0.53532 1.366491,1.19568 z"
             sodipodi:type="arc"
             sodipodi:ry="1.1956801"
             sodipodi:rx="1.3664916"
             sodipodi:cy="109.99541"
             sodipodi:cx="65.93322" />
          <ellipse
             id="path3788"
             style="fill:#483737;fill-rule:evenodd;stroke:#000000;stroke-width:1px;stroke-linecap:butt;stroke-linejoin:miter;stroke-opacity:1"
             d="m 81.989499,99.917542 c 0,0.754688 -0.45885,1.366488 -1.024869,1.366488 -0.566019,0 -1.024869,-0.6118 -1.024869,-1.366488 0,-0.754693 0.45885,-1.366492 1.024869,-1.366492 0.566019,0 1.024869,0.611799 1.024869,1.366492 z"
             sodipodi:type="arc"
             sodipodi:ry="1.3664916"
             sodipodi:rx="1.0248687"
             sodipodi:cy="99.917542"
             sodipodi:cx="80.96463" />
        </g>
      </g>
    </g>
  </g>
</svg>
