<?xml version="1.0" encoding="UTF-8" standalone="no"?>
<!-- Created with Inkscape (http://www.inkscape.org/) -->

<svg
   xmlns:dc="http://purl.org/dc/elements/1.1/"
   xmlns:cc="http://creativecommons.org/ns#"
   xmlns:rdf="http://www.w3.org/1999/02/22-rdf-syntax-ns#"
   xmlns:svg="http://www.w3.org/2000/svg"
   xmlns="http://www.w3.org/2000/svg"
   xmlns:xlink="http://www.w3.org/1999/xlink"
   xmlns:sodipodi="http://sodipodi.sourceforge.net/DTD/sodipodi-0.dtd"
   xmlns:inkscape="http://www.inkscape.org/namespaces/inkscape"
   width="2701.0178mm"
   height="2694.2141mm"
   viewBox="0 0 2701.0178 2694.2141"
   version="1.1"
   id="svg18069"
   inkscape:version="0.92.4 (5da689c313, 2019-01-14)"
   sodipodi:docname="water.svg">
  <defs
     id="defs18063" />
  <sodipodi:namedview
     id="base"
     pagecolor="#ffffff"
     bordercolor="#666666"
     borderopacity="1.0"
     inkscape:pageopacity="0.0"
     inkscape:pageshadow="2"
     inkscape:zoom="0.12125733"
     inkscape:cx="3950.8021"
     inkscape:cy="11288.583"
     inkscape:document-units="mm"
     inkscape:current-layer="layer1"
     showgrid="false"
     inkscape:window-width="1920"
     inkscape:window-height="1017"
     inkscape:window-x="-8"
     inkscape:window-y="-8"
     inkscape:window-maximized="1"
     fit-margin-top="0"
     fit-margin-left="0"
     fit-margin-right="0"
     fit-margin-bottom="0" />
  <metadata
     id="metadata18066">
    <rdf:RDF>
      <cc:Work
         rdf:about="">
        <dc:format>image/svg+xml</dc:format>
        <dc:type
           rdf:resource="http://purl.org/dc/dcmitype/StillImage" />
        <dc:title></dc:title>
      </cc:Work>
    </rdf:RDF>
  </metadata>
  <g
     inkscape:label="Layer 1"
     inkscape:groupmode="layer"
     id="layer1"
     transform="translate(11.248572,27.061664)">
    <g
       id="g18750"
       inkscape:tile-cx="150.8125"
       inkscape:tile-cy="149.56548"
       inkscape:tile-w="300.1131"
       inkscape:tile-h="299.35714"
       inkscape:tile-x0="0.75595241"
       inkscape:tile-y0="-0.1130929">
      <rect
         ry="0.13394804"
         y="-3.1130929"
         x="0.75595242"
         height="299.35715"
         width="300.1131"
         id="rect18614"
         style="fill:#2496e4;fill-opacity:1;stroke:none;stroke-width:14.29668713;stroke-miterlimit:4;stroke-dasharray:none;stroke-opacity:1" />
      <path
         inkscape:connector-curvature="0"
         id="path18616"
         d="m 45.33799,97.428565 c -2.061347,-18.80546 11.358463,-37.663208 28.409827,-40.62828 8.525466,-5.44602 20.633468,-7.930956 28.757683,-0.320507 11.03068,17.603437 26.76023,34.008287 46.87163,37.109827 17.38182,5.60063 37.16431,11.653565 54.36231,2.12599 15.06684,-10.34939 26.48492,-27.167526 44.04813,-32.953528 3.81849,-2.094331 7.54532,-4.682862 10.18734,-8.422779"
         style="fill:none;stroke:#0cb7f2;stroke-width:13.84590626;stroke-linecap:butt;stroke-linejoin:miter;stroke-miterlimit:4;stroke-dasharray:none;stroke-opacity:1" />
      <path
         inkscape:connector-curvature="0"
         id="path18616-7"
         d="m 47.88479,170.03417 c -2.061347,-18.80546 11.358463,-37.66321 28.409828,-40.62828 8.525465,-5.44602 20.633468,-7.93096 28.757682,-0.32051 11.03068,17.60344 26.76023,34.00829 46.87163,37.10983 17.38182,5.60063 37.16431,11.65356 54.36231,2.12599 15.06684,-10.34939 26.48492,-27.16753 44.04813,-32.95353 3.81849,-2.09433 7.54532,-4.68286 10.18734,-8.42278"
         style="fill:none;stroke:#0cb7f2;stroke-width:13.84590626;stroke-linecap:butt;stroke-linejoin:miter;stroke-miterlimit:4;stroke-dasharray:none;stroke-opacity:1" />
      <path
         inkscape:connector-curvature="0"
         id="path18616-0"
         d="m 49.396696,248.65322 c -2.061347,-18.80546 11.358463,-37.66321 28.409828,-40.62828 8.525465,-5.44602 20.633468,-7.93096 28.757686,-0.32051 11.03068,17.60344 26.76023,34.00829 46.87163,37.10983 17.38182,5.60063 37.16431,11.65356 54.36231,2.12599 15.06684,-10.34939 26.48492,-27.16753 44.04813,-32.95353 3.81849,-2.09433 7.54532,-4.68286 10.18734,-8.42278"
         style="fill:none;stroke:#0cb7f2;stroke-width:13.84590626;stroke-linecap:butt;stroke-linejoin:miter;stroke-miterlimit:4;stroke-dasharray:none;stroke-opacity:1" />
    </g>
    <use
       x="0"
       y="0"
       inkscape:tiled-clone-of="#g18750"
       xlink:href="#g18750"
       id="use23265"
       width="100%"
       height="100%" />
    <use
       x="0"
       y="0"
       inkscape:tiled-clone-of="#g18750"
       xlink:href="#g18750"
       transform="translate(-1.5005655,296.36357)"
       id="use23267"
       width="100%"
       height="100%" />
    <use
       x="0"
       y="0"
       inkscape:tiled-clone-of="#g18750"
       xlink:href="#g18750"
       transform="translate(-3.001131,592.72714)"
       id="use23269"
       width="100%"
       height="100%" />
    <use
       x="0"
       y="0"
       inkscape:tiled-clone-of="#g18750"
       xlink:href="#g18750"
       transform="translate(-4.5016965,889.09071)"
       id="use23271"
       width="100%"
       height="100%" />
    <use
       x="0"
       y="0"
       inkscape:tiled-clone-of="#g18750"
       xlink:href="#g18750"
       transform="translate(-6.002262,1185.4543)"
       id="use23273"
       width="100%"
       height="100%" />
    <use
       x="0"
       y="0"
       inkscape:tiled-clone-of="#g18750"
       xlink:href="#g18750"
       transform="translate(-7.5028275,1481.8178)"
       id="use23275"
       width="100%"
       height="100%" />
    <use
       x="0"
       y="0"
       inkscape:tiled-clone-of="#g18750"
       xlink:href="#g18750"
       transform="translate(-9.003393,1778.1814)"
       id="use23277"
       width="100%"
       height="100%" />
    <use
       x="0"
       y="0"
       inkscape:tiled-clone-of="#g18750"
       xlink:href="#g18750"
       transform="translate(-10.503959,2074.545)"
       id="use23279"
       width="100%"
       height="100%" />
    <use
       x="0"
       y="0"
       inkscape:tiled-clone-of="#g18750"
       xlink:href="#g18750"
       transform="translate(-12.004524,2370.9085)"
       id="use23281"
       width="100%"
       height="100%" />
    <use
       x="0"
       y="0"
       inkscape:tiled-clone-of="#g18750"
       xlink:href="#g18750"
       transform="translate(298.61253,-2.9935714)"
       id="use23283"
       width="100%"
       height="100%" />
    <use
       x="0"
       y="0"
       inkscape:tiled-clone-of="#g18750"
       xlink:href="#g18750"
       transform="translate(297.11197,293.37)"
       id="use23285"
       width="100%"
       height="100%" />
    <use
       x="0"
       y="0"
       inkscape:tiled-clone-of="#g18750"
       xlink:href="#g18750"
       transform="translate(295.6114,589.73357)"
       id="use23287"
       width="100%"
       height="100%" />
    <use
       x="0"
       y="0"
       inkscape:tiled-clone-of="#g18750"
       xlink:href="#g18750"
       transform="translate(294.11084,886.09713)"
       id="use23289"
       width="100%"
       height="100%" />
    <use
       x="0"
       y="0"
       inkscape:tiled-clone-of="#g18750"
       xlink:href="#g18750"
       transform="translate(292.61027,1182.4607)"
       id="use23291"
       width="100%"
       height="100%" />
    <use
       x="0"
       y="0"
       inkscape:tiled-clone-of="#g18750"
       xlink:href="#g18750"
       transform="translate(291.10971,1478.8243)"
       id="use23293"
       width="100%"
       height="100%" />
    <use
       x="0"
       y="0"
       inkscape:tiled-clone-of="#g18750"
       xlink:href="#g18750"
       transform="translate(289.60914,1775.1878)"
       id="use23295"
       width="100%"
       height="100%" />
    <use
       x="0"
       y="0"
       inkscape:tiled-clone-of="#g18750"
       xlink:href="#g18750"
       transform="translate(288.10858,2071.5514)"
       id="use23297"
       width="100%"
       height="100%" />
    <use
       x="0"
       y="0"
       inkscape:tiled-clone-of="#g18750"
       xlink:href="#g18750"
       transform="translate(286.60801,2367.915)"
       id="use23299"
       width="100%"
       height="100%" />
    <use
       x="0"
       y="0"
       inkscape:tiled-clone-of="#g18750"
       xlink:href="#g18750"
       transform="translate(597.22507,-5.9871428)"
       id="use23301"
       width="100%"
       height="100%" />
    <use
       x="0"
       y="0"
       inkscape:tiled-clone-of="#g18750"
       xlink:href="#g18750"
       transform="translate(595.7245,290.37643)"
       id="use23303"
       width="100%"
       height="100%" />
    <use
       x="0"
       y="0"
       inkscape:tiled-clone-of="#g18750"
       xlink:href="#g18750"
       transform="translate(594.22394,586.73999)"
       id="use23305"
       width="100%"
       height="100%" />
    <use
       x="0"
       y="0"
       inkscape:tiled-clone-of="#g18750"
       xlink:href="#g18750"
       transform="translate(592.72337,883.10356)"
       id="use23307"
       width="100%"
       height="100%" />
    <use
       x="0"
       y="0"
       inkscape:tiled-clone-of="#g18750"
       xlink:href="#g18750"
       transform="translate(591.22281,1179.4671)"
       id="use23309"
       width="100%"
       height="100%" />
    <use
       x="0"
       y="0"
       inkscape:tiled-clone-of="#g18750"
       xlink:href="#g18750"
       transform="translate(589.72224,1475.8307)"
       id="use23311"
       width="100%"
       height="100%" />
    <use
       x="0"
       y="0"
       inkscape:tiled-clone-of="#g18750"
       xlink:href="#g18750"
       transform="translate(588.22168,1772.1943)"
       id="use23313"
       width="100%"
       height="100%" />
    <use
       x="0"
       y="0"
       inkscape:tiled-clone-of="#g18750"
       xlink:href="#g18750"
       transform="translate(586.72111,2068.5578)"
       id="use23315"
       width="100%"
       height="100%" />
    <use
       x="0"
       y="0"
       inkscape:tiled-clone-of="#g18750"
       xlink:href="#g18750"
       transform="translate(585.22054,2364.9214)"
       id="use23317"
       width="100%"
       height="100%" />
    <use
       x="0"
       y="0"
       inkscape:tiled-clone-of="#g18750"
       xlink:href="#g18750"
       transform="translate(895.8376,-8.9807142)"
       id="use23319"
       width="100%"
       height="100%" />
    <use
       x="0"
       y="0"
       inkscape:tiled-clone-of="#g18750"
       xlink:href="#g18750"
       transform="translate(894.33704,287.38285)"
       id="use23321"
       width="100%"
       height="100%" />
    <use
       x="0"
       y="0"
       inkscape:tiled-clone-of="#g18750"
       xlink:href="#g18750"
       transform="translate(892.83647,583.74642)"
       id="use23323"
       width="100%"
       height="100%" />
    <use
       x="0"
       y="0"
       inkscape:tiled-clone-of="#g18750"
       xlink:href="#g18750"
       transform="translate(891.33591,880.10999)"
       id="use23325"
       width="100%"
       height="100%" />
    <use
       x="0"
       y="0"
       inkscape:tiled-clone-of="#g18750"
       xlink:href="#g18750"
       transform="translate(889.83534,1176.4736)"
       id="use23327"
       width="100%"
       height="100%" />
    <use
       x="0"
       y="0"
       inkscape:tiled-clone-of="#g18750"
       xlink:href="#g18750"
       transform="translate(888.33478,1472.8371)"
       id="use23329"
       width="100%"
       height="100%" />
    <use
       x="0"
       y="0"
       inkscape:tiled-clone-of="#g18750"
       xlink:href="#g18750"
       transform="translate(886.83421,1769.2007)"
       id="use23331"
       width="100%"
       height="100%" />
    <use
       x="0"
       y="0"
       inkscape:tiled-clone-of="#g18750"
       xlink:href="#g18750"
       transform="translate(885.33364,2065.5643)"
       id="use23333"
       width="100%"
       height="100%" />
    <use
       x="0"
       y="0"
       inkscape:tiled-clone-of="#g18750"
       xlink:href="#g18750"
       transform="translate(883.83308,2361.9278)"
       id="use23335"
       width="100%"
       height="100%" />
    <use
       x="0"
       y="0"
       inkscape:tiled-clone-of="#g18750"
       xlink:href="#g18750"
       transform="translate(1194.4501,-11.974286)"
       id="use23337"
       width="100%"
       height="100%" />
    <use
       x="0"
       y="0"
       inkscape:tiled-clone-of="#g18750"
       xlink:href="#g18750"
       transform="translate(1192.9496,284.38928)"
       id="use23339"
       width="100%"
       height="100%" />
    <use
       x="0"
       y="0"
       inkscape:tiled-clone-of="#g18750"
       xlink:href="#g18750"
       transform="translate(1191.449,580.75285)"
       id="use23341"
       width="100%"
       height="100%" />
    <use
       x="0"
       y="0"
       inkscape:tiled-clone-of="#g18750"
       xlink:href="#g18750"
       transform="translate(1189.9484,877.11642)"
       id="use23343"
       width="100%"
       height="100%" />
    <use
       x="0"
       y="0"
       inkscape:tiled-clone-of="#g18750"
       xlink:href="#g18750"
       transform="translate(1188.4479,1173.48)"
       id="use23345"
       width="100%"
       height="100%" />
    <use
       x="0"
       y="0"
       inkscape:tiled-clone-of="#g18750"
       xlink:href="#g18750"
       transform="translate(1186.9473,1469.8436)"
       id="use23347"
       width="100%"
       height="100%" />
    <use
       x="0"
       y="0"
       inkscape:tiled-clone-of="#g18750"
       xlink:href="#g18750"
       transform="translate(1185.4467,1766.2071)"
       id="use23349"
       width="100%"
       height="100%" />
    <use
       x="0"
       y="0"
       inkscape:tiled-clone-of="#g18750"
       xlink:href="#g18750"
       transform="translate(1183.9462,2062.5707)"
       id="use23351"
       width="100%"
       height="100%" />
    <use
       x="0"
       y="0"
       inkscape:tiled-clone-of="#g18750"
       xlink:href="#g18750"
       transform="translate(1182.4456,2358.9343)"
       id="use23353"
       width="100%"
       height="100%" />
    <use
       x="0"
       y="0"
       inkscape:tiled-clone-of="#g18750"
       xlink:href="#g18750"
       transform="translate(1493.0627,-14.967857)"
       id="use23355"
       width="100%"
       height="100%" />
    <use
       x="0"
       y="0"
       inkscape:tiled-clone-of="#g18750"
       xlink:href="#g18750"
       transform="translate(1491.5621,281.39571)"
       id="use23357"
       width="100%"
       height="100%" />
    <use
       x="0"
       y="0"
       inkscape:tiled-clone-of="#g18750"
       xlink:href="#g18750"
       transform="translate(1490.0615,577.75928)"
       id="use23359"
       width="100%"
       height="100%" />
    <use
       x="0"
       y="0"
       inkscape:tiled-clone-of="#g18750"
       xlink:href="#g18750"
       transform="translate(1488.561,874.12285)"
       id="use23361"
       width="100%"
       height="100%" />
    <use
       x="0"
       y="0"
       inkscape:tiled-clone-of="#g18750"
       xlink:href="#g18750"
       transform="translate(1487.0604,1170.4864)"
       id="use23363"
       width="100%"
       height="100%" />
    <use
       x="0"
       y="0"
       inkscape:tiled-clone-of="#g18750"
       xlink:href="#g18750"
       transform="translate(1485.5598,1466.85)"
       id="use23365"
       width="100%"
       height="100%" />
    <use
       x="0"
       y="0"
       inkscape:tiled-clone-of="#g18750"
       xlink:href="#g18750"
       transform="translate(1484.0593,1763.2136)"
       id="use23367"
       width="100%"
       height="100%" />
    <use
       x="0"
       y="0"
       inkscape:tiled-clone-of="#g18750"
       xlink:href="#g18750"
       transform="translate(1482.5587,2059.5771)"
       id="use23369"
       width="100%"
       height="100%" />
    <use
       x="0"
       y="0"
       inkscape:tiled-clone-of="#g18750"
       xlink:href="#g18750"
       transform="translate(1481.0581,2355.9407)"
       id="use23371"
       width="100%"
       height="100%" />
    <use
       x="0"
       y="0"
       inkscape:tiled-clone-of="#g18750"
       xlink:href="#g18750"
       transform="translate(1791.6752,-17.961428)"
       id="use23373"
       width="100%"
       height="100%" />
    <use
       x="0"
       y="0"
       inkscape:tiled-clone-of="#g18750"
       xlink:href="#g18750"
       transform="translate(1790.1746,278.40214)"
       id="use23375"
       width="100%"
       height="100%" />
    <use
       x="0"
       y="0"
       inkscape:tiled-clone-of="#g18750"
       xlink:href="#g18750"
       transform="translate(1788.6741,574.76571)"
       id="use23377"
       width="100%"
       height="100%" />
    <use
       x="0"
       y="0"
       inkscape:tiled-clone-of="#g18750"
       xlink:href="#g18750"
       transform="translate(1787.1735,871.12928)"
       id="use23379"
       width="100%"
       height="100%" />
    <use
       x="0"
       y="0"
       inkscape:tiled-clone-of="#g18750"
       xlink:href="#g18750"
       transform="translate(1785.6729,1167.4928)"
       id="use23381"
       width="100%"
       height="100%" />
    <use
       x="0"
       y="0"
       inkscape:tiled-clone-of="#g18750"
       xlink:href="#g18750"
       transform="translate(1784.1724,1463.8564)"
       id="use23383"
       width="100%"
       height="100%" />
    <use
       x="0"
       y="0"
       inkscape:tiled-clone-of="#g18750"
       xlink:href="#g18750"
       transform="translate(1782.6718,1760.22)"
       id="use23385"
       width="100%"
       height="100%" />
    <use
       x="0"
       y="0"
       inkscape:tiled-clone-of="#g18750"
       xlink:href="#g18750"
       transform="translate(1781.1712,2056.5836)"
       id="use23387"
       width="100%"
       height="100%" />
    <use
       x="0"
       y="0"
       inkscape:tiled-clone-of="#g18750"
       xlink:href="#g18750"
       transform="translate(1779.6707,2352.9471)"
       id="use23389"
       width="100%"
       height="100%" />
    <use
       x="0"
       y="0"
       inkscape:tiled-clone-of="#g18750"
       xlink:href="#g18750"
       transform="translate(2090.2877,-20.955)"
       id="use23391"
       width="100%"
       height="100%" />
    <use
       x="0"
       y="0"
       inkscape:tiled-clone-of="#g18750"
       xlink:href="#g18750"
       transform="translate(2088.7872,275.40857)"
       id="use23393"
       width="100%"
       height="100%" />
    <use
       x="0"
       y="0"
       inkscape:tiled-clone-of="#g18750"
       xlink:href="#g18750"
       transform="translate(2087.2866,571.77214)"
       id="use23395"
       width="100%"
       height="100%" />
    <use
       x="0"
       y="0"
       inkscape:tiled-clone-of="#g18750"
       xlink:href="#g18750"
       transform="translate(2085.786,868.13571)"
       id="use23397"
       width="100%"
       height="100%" />
    <use
       x="0"
       y="0"
       inkscape:tiled-clone-of="#g18750"
       xlink:href="#g18750"
       transform="translate(2084.2855,1164.4993)"
       id="use23399"
       width="100%"
       height="100%" />
    <use
       x="0"
       y="0"
       inkscape:tiled-clone-of="#g18750"
       xlink:href="#g18750"
       transform="translate(2082.7849,1460.8628)"
       id="use23401"
       width="100%"
       height="100%" />
    <use
       x="0"
       y="0"
       inkscape:tiled-clone-of="#g18750"
       xlink:href="#g18750"
       transform="translate(2081.2843,1757.2264)"
       id="use23403"
       width="100%"
       height="100%" />
    <use
       x="0"
       y="0"
       inkscape:tiled-clone-of="#g18750"
       xlink:href="#g18750"
       transform="translate(2079.7838,2053.59)"
       id="use23405"
       width="100%"
       height="100%" />
    <use
       x="0"
       y="0"
       inkscape:tiled-clone-of="#g18750"
       xlink:href="#g18750"
       transform="translate(2078.2832,2349.9535)"
       id="use23407"
       width="100%"
       height="100%" />
    <use
       x="0"
       y="0"
       inkscape:tiled-clone-of="#g18750"
       xlink:href="#g18750"
       transform="translate(2388.9003,-23.948571)"
       id="use23409"
       width="100%"
       height="100%" />
    <use
       x="0"
       y="0"
       inkscape:tiled-clone-of="#g18750"
       xlink:href="#g18750"
       transform="translate(2387.3997,272.415)"
       id="use23411"
       width="100%"
       height="100%" />
    <use
       x="0"
       y="0"
       inkscape:tiled-clone-of="#g18750"
       xlink:href="#g18750"
       transform="translate(2385.8991,568.77857)"
       id="use23413"
       width="100%"
       height="100%" />
    <use
       x="0"
       y="0"
       inkscape:tiled-clone-of="#g18750"
       xlink:href="#g18750"
       transform="translate(2384.3986,865.14213)"
       id="use23415"
       width="100%"
       height="100%" />
    <use
       x="0"
       y="0"
       inkscape:tiled-clone-of="#g18750"
       xlink:href="#g18750"
       transform="translate(2382.898,1161.5057)"
       id="use23417"
       width="100%"
       height="100%" />
    <use
       x="0"
       y="0"
       inkscape:tiled-clone-of="#g18750"
       xlink:href="#g18750"
       transform="translate(2381.3974,1457.8693)"
       id="use23419"
       width="100%"
       height="100%" />
    <use
       x="0"
       y="0"
       inkscape:tiled-clone-of="#g18750"
       xlink:href="#g18750"
       transform="translate(2379.8969,1754.2328)"
       id="use23421"
       width="100%"
       height="100%" />
    <use
       x="0"
       y="0"
       inkscape:tiled-clone-of="#g18750"
       xlink:href="#g18750"
       transform="translate(2378.3963,2050.5964)"
       id="use23423"
       width="100%"
       height="100%" />
    <use
       x="0"
       y="0"
       inkscape:tiled-clone-of="#g18750"
       xlink:href="#g18750"
       transform="translate(2376.8958,2346.96)"
       id="use23425"
       width="100%"
       height="100%" />
  </g>
</svg>
